<svg width="150" height="100" viewBox="0 0 150 100" fill="none" xmlns="http://www.w3.org/2000/svg">
<path fill-rule="evenodd" clip-rule="evenodd" d="M146.5 93.5C146.776 93.5 147 93.2761 147 93L147 53.5C147 53.2239 146.776 53 146.5 53C146.224 53 146 53.2239 146 53.5L146 93C146 93.2761 146.224 93.5 146.5 93.5Z" fill="white"/>
<path fill-rule="evenodd" clip-rule="evenodd" d="M3.5 47C3.77614 47 4 46.7761 4 46.5L4 7C4 6.72386 3.77614 6.5 3.5 6.5C3.22386 6.5 3 6.72386 3 7L3 46.5C3 46.7761 3.22386 47 3.5 47Z" fill="white"/>
<path fill-rule="evenodd" clip-rule="evenodd" d="M3.5 78.5C3.77614 78.5 4 78.2761 4 78L4 53.5C4 53.2239 3.77614 53 3.5 53C3.22386 53 3 53.2239 3 53.5L3 78C3 78.2761 3.22386 78.5 3.5 78.5Z" fill="white"/>
<path fill-rule="evenodd" clip-rule="evenodd" d="M146.5 47C146.776 47 147 46.7761 147 46.5L147 7C147 6.72386 146.776 6.5 146.5 6.5C146.224 6.5 146 6.72386 146 7L146 46.5C146 46.7761 146.224 47 146.5 47Z" fill="white"/>
<path fill-rule="evenodd" clip-rule="evenodd" d="M54 96.5C54 96.7761 54.2239 97 54.5 97H95.5C95.7761 97 96 96.7761 96 96.5C96 96.2239 95.7761 96 95.5 96H54.5C54.2239 96 54 96.2239 54 96.5Z" fill="white"/>
<path fill-rule="evenodd" clip-rule="evenodd" d="M6.5 96.5C6.5 96.7761 6.72386 97 7 97L47.5 97C47.7761 97 48 96.7761 48 96.5C48 96.2239 47.7761 96 47.5 96L7 96C6.72386 96 6.5 96.2239 6.5 96.5Z" fill="white"/>
<path fill-rule="evenodd" clip-rule="evenodd" d="M54 3.5C54 3.77614 54.2239 4 54.5 4H95.5C95.7761 4 96 3.77614 96 3.5C96 3.22386 95.7761 3 95.5 3H54.5C54.2239 3 54 3.22386 54 3.5Z" fill="white"/>
<path fill-rule="evenodd" clip-rule="evenodd" d="M102.511 5.89523C102.453 6.16525 102.625 6.43104 102.895 6.4889L116.923 9.49495L142.952 11.9977C143.227 12.0241 143.471 11.8227 143.498 11.5479C143.524 11.273 143.323 11.0287 143.048 11.0023L117.077 8.50506L103.105 5.5111C102.835 5.45324 102.569 5.62522 102.511 5.89523Z" fill="white"/>
<path fill-rule="evenodd" clip-rule="evenodd" d="M47.9899 5.89961C48.0453 6.17013 47.871 6.43438 47.6005 6.48982L32.9372 9.49514L7.04813 11.9977C6.77327 12.0243 6.52891 11.823 6.50234 11.5481C6.47577 11.2733 6.67705 11.0289 6.95192 11.0023L32.7883 8.50487L47.3997 5.51019C47.6702 5.45474 47.9344 5.62909 47.9899 5.89961Z" fill="white"/>
<path fill-rule="evenodd" clip-rule="evenodd" d="M3.5 93.5C3.22386 93.5 3 93.2761 3 93L3 89C3 88.7239 3.22386 88.5 3.5 88.5C3.77614 88.5 4 88.7239 4 89L4 93C4 93.2761 3.77614 93.5 3.5 93.5Z" fill="white"/>
<path fill-rule="evenodd" clip-rule="evenodd" d="M143.5 3.4939C143.5 3.77341 143.18 4 142.784 4L102.716 4C102.32 4 102 3.77341 102 3.4939C102 3.21439 102.32 2.9878 102.716 2.9878L142.784 2.98781C143.18 2.98781 143.5 3.2144 143.5 3.4939Z" fill="white"/>
<path fill-rule="evenodd" clip-rule="evenodd" d="M6.25 80.75C6.25 79.2312 5.01878 78 3.5 78C1.98122 78 0.75 79.2312 0.75 80.75V82H1.75V80.75C1.75 79.7835 2.5335 79 3.5 79C4.4665 79 5.25 79.7835 5.25 80.75V86.25C5.25 87.2165 4.4665 88 3.5 88C2.5335 88 1.75 87.2165 1.75 86.25V85H0.75V86.25C0.75 87.7688 1.98122 89 3.5 89C5.01878 89 6.25 87.7688 6.25 86.25V80.75ZM0.75 84V83H1.75V84H0.75Z" fill="white"/>
<path d="M1.75 85V86H0V85H1.75Z" fill="white"/>
<path d="M1.75 83V84H0V83H1.75Z" fill="white"/>
<path d="M1.75 81V82H0V81H1.75Z" fill="white"/>
<path fill-rule="evenodd" clip-rule="evenodd" d="M104 28.5V65.5C104 65.7761 103.776 66 103.5 66H46.5C46.2239 66 46 65.7761 46 65.5V28.5C46 28.2239 46.2239 28 46.5 28L103.5 28C103.776 28 104 28.2239 104 28.5ZM105 65.5C105 66.3284 104.328 67 103.5 67H46.5C45.6716 67 45 66.3284 45 65.5V28.5C45 27.6716 45.6716 27 46.5 27L103.5 27C104.328 27 105 27.6716 105 28.5V65.5Z" fill="white"/>
<path fill-rule="evenodd" clip-rule="evenodd" d="M109 27.831V71.3331C109 73.9837 106.932 76.1737 104.285 76.3249L75 77.9984L45.7148 76.3249C43.0685 76.1737 41 73.9837 41 71.3331V27.831C41 25.1252 43.1525 22.9103 45.8572 22.8331L75 22.0004L104.143 22.8331C106.848 22.9103 109 25.1252 109 27.831ZM75 21L104.171 21.8335C107.417 21.9262 110 24.584 110 27.831V71.3331C110 74.5138 107.518 77.1418 104.342 77.3233L75 79L45.6577 77.3233C42.4821 77.1418 40 74.5138 40 71.3331V27.831C40 24.584 42.583 21.9262 45.8286 21.8335L75 21Z" fill="white"/>
<path fill-rule="evenodd" clip-rule="evenodd" d="M20.5172 41.9779C19.2378 44.7492 15.9541 45.9587 13.1828 44.6794C10.4115 43.4 9.20198 40.1163 10.4813 37.345C11.7607 34.5737 15.0444 33.3642 17.8157 34.6435C20.587 35.9229 21.7965 39.2066 20.5172 41.9779ZM21.4251 42.3971C19.9142 45.6698 16.0364 47.0981 12.7636 45.5873C9.49089 44.0764 8.06258 40.1986 9.57341 36.9258C11.0842 33.6531 14.9621 32.2248 18.2349 33.7356C21.5076 35.2464 22.9359 39.1243 21.4251 42.3971Z" fill="white"/>
<path fill-rule="evenodd" clip-rule="evenodd" d="M33.3564 47.9051C32.0771 50.6764 28.7934 51.8859 26.0221 50.6065C23.2507 49.3272 22.0413 46.0434 23.3206 43.2721C24.6 40.5008 27.8837 39.2913 30.655 40.5707C33.4263 41.85 34.6358 45.1338 33.3564 47.9051ZM34.2644 48.3242C32.7535 51.597 28.8757 53.0253 25.6029 51.5144C22.3302 50.0036 20.9019 46.1257 22.4127 42.853C23.9235 39.5802 27.8014 38.1519 31.0741 39.6628C34.3469 41.1736 35.7752 45.0515 34.2644 48.3242Z" fill="white"/>
<path d="M92.001 74V70.001H93V69.5H89.5005V70.001H90.501V74H92.001Z" fill="white"/>
<path d="M89.5005 75.5V74.999H90V74.4995H88.5V74.999H87.501V74H89.5005V73.5005H90V71H88.5V73.5005H87.501V71H86.001V74.999H86.5005V75.5H89.5005Z" fill="white"/>
<path d="M83.001 73.5005V71.501H84V73.5005H83.001ZM85.5 75.5V71H82.0005V71.501H81.501V73.5005H82.0005V74H84V75.5H85.5Z" fill="white"/>
<path d="M78.501 72.0005V71.501H79.5V72.0005H78.501ZM80.5005 74V73.5005H81V71.501H80.5005V71H77.5005V71.501H77.001V72.5H79.5V73.5005H77.5005V74H80.5005Z" fill="white"/>
<path d="M74.001 73.5005V72.0005H75V73.5005H74.001ZM74.001 71.501V70.001H75V71.501H74.001ZM76.5 74V69.5H73.0005V70.001H72.501V71.501H73.0005V72.0005H72.501V73.5005H73.0005V74H76.5Z" fill="white"/>
<path d="M69.501 73.5005V71.501H70.5V73.5005H69.501ZM71.5005 74V73.5005H72V71.501H71.5005V71H68.5005V71.501H68.001V73.5005H68.5005V74H71.5005Z" fill="white"/>
<path d="M67.0005 75.5V74.999H67.5V74.4995H66V74.999H65.001V74H67.0005V73.5005H67.5V71H66V73.5005H65.001V71H63.501V74.999H64.0005V75.5H67.0005Z" fill="white"/>
<path d="M61.5723 74H61.8525V72.5605H61.415L61.1533 73.6924L60.8936 72.5605H60.4609V74H60.7412V73.0264C60.7412 72.9984 60.7409 72.9593 60.7402 72.9092C60.7396 72.8584 60.7393 72.8193 60.7393 72.792L61.0117 74H61.3037L61.5742 72.792C61.5742 72.8193 61.5739 72.8584 61.5732 72.9092C61.5726 72.9593 61.5723 72.9984 61.5723 73.0264V74Z" fill="white"/>
<path d="M58.9062 74H59.293L59.7373 73.3711L59.8809 73.5186V74H60.1768V72.5605H59.8809V73.1533L59.3252 72.5605H58.9365L59.5264 73.1533L58.9062 74Z" fill="white"/>
<path d="M58.7637 73.709H58.4678V74H58.7637V73.709Z" fill="white"/>
<path d="M57.6465 72.5605H57.3477V74H57.6465V72.5605Z" fill="white"/>
<path d="M57.0898 72.5605H56.791V74H57.0898V72.5605Z" fill="white"/>
<path fill-rule="evenodd" clip-rule="evenodd" d="M26.9324 88.9353L10.7862 83.6156C10.5239 83.5292 10.2412 83.6718 10.1548 83.9341C10.0684 84.1963 10.211 84.479 10.4732 84.5654L26.6195 89.8851C26.8818 89.9715 27.1644 89.8289 27.2508 89.5666C27.3373 89.3044 27.1947 89.0217 26.9324 88.9353ZM9.20504 83.6211C8.94581 84.408 9.3735 85.256 10.1603 85.5152L26.3066 90.8348C27.0934 91.0941 27.9414 90.6664 28.2006 89.8795C28.4599 89.0927 28.0322 88.2447 27.2453 87.9855L11.0991 82.6658C10.3123 82.4066 9.46427 82.8343 9.20504 83.6211Z" fill="white"/>
<path fill-rule="evenodd" clip-rule="evenodd" d="M28.1841 85.1361L12.0378 79.8165C11.7755 79.7301 11.4929 79.8727 11.4065 80.1349C11.3201 80.3972 11.4626 80.6799 11.7249 80.7663L27.8711 86.0859C28.1334 86.1723 28.4161 86.0298 28.5025 85.7675C28.5889 85.5052 28.4463 85.2226 28.1841 85.1361ZM10.4567 79.822C10.1975 80.6088 10.6252 81.4568 11.412 81.7161L27.5582 87.0357C28.345 87.2949 29.193 86.8672 29.4523 86.0804C29.7115 85.2936 29.2838 84.4456 28.497 84.1864L12.3507 78.8667C11.5639 78.6075 10.7159 79.0352 10.4567 79.822Z" fill="white"/>
<path fill-rule="evenodd" clip-rule="evenodd" d="M30.6875 77.5379L14.5412 72.2183C14.279 72.1318 13.9963 72.2744 13.9099 72.5367C13.8235 72.799 13.966 73.0816 14.2283 73.168L30.3746 78.4877C30.6368 78.5741 30.9195 78.4315 31.0059 78.1693C31.0923 77.907 30.9498 77.6243 30.6875 77.5379ZM12.9601 72.2238C12.7009 73.0106 13.1286 73.8586 13.9154 74.1178L30.0616 79.4375C30.8485 79.6967 31.6965 79.269 31.9557 78.4822C32.2149 77.6954 31.7872 76.8474 31.0004 76.5881L14.8542 71.2685C14.0673 71.0092 13.2193 71.4369 12.9601 72.2238Z" fill="white"/>
<path fill-rule="evenodd" clip-rule="evenodd" d="M29.4358 81.337L13.2895 76.0174C13.0272 75.931 12.7446 76.0735 12.6582 76.3358C12.5718 76.5981 12.7143 76.8808 12.9766 76.9672L29.1229 82.2868C29.3851 82.3732 29.6678 82.2307 29.7542 81.9684C29.8406 81.7061 29.698 81.4235 29.4358 81.337ZM11.7084 76.0229C11.4492 76.8097 11.8769 77.6577 12.6637 77.917L28.8099 83.2366C29.5968 83.4958 30.4447 83.0681 30.704 82.2813C30.9632 81.4945 30.5355 80.6465 29.7487 80.3873L13.6024 75.0676C12.8156 74.8084 11.9676 75.2361 11.7084 76.0229Z" fill="white"/>
<path fill-rule="evenodd" clip-rule="evenodd" d="M31.9391 73.7388L15.7929 68.4191C15.5306 68.3327 15.2479 68.4753 15.1615 68.7376C15.0751 68.9998 15.2177 69.2825 15.48 69.3689L31.6262 74.6886C31.8885 74.775 32.1711 74.6324 32.2576 74.3701C32.344 74.1079 32.2014 73.8252 31.9391 73.7388ZM14.2118 68.4247C13.9525 69.2115 14.3802 70.0595 15.167 70.3187L31.3133 75.6383C32.1001 75.8976 32.9481 75.4699 33.2073 74.6831C33.4666 73.8962 33.0389 73.0482 32.252 72.789L16.1058 67.4694C15.319 67.2101 14.471 67.6378 14.2118 68.4247Z" fill="white"/>
<path fill-rule="evenodd" clip-rule="evenodd" d="M131 45V51C131 51.5523 130.552 52 130 52H126C125.448 52 125 51.5523 125 51V45H119C118.448 45 118 44.5523 118 44V40C118 39.4477 118.448 39 119 39H125V33C125 32.4477 125.448 32 126 32H130C130.552 32 131 32.4477 131 33V39H137C137.552 39 138 39.4477 138 40V44C138 44.5523 137.552 45 137 45H131ZM137 46C138.105 46 139 45.1046 139 44V40C139 38.8954 138.105 38 137 38H132V33C132 31.8954 131.105 31 130 31H126C124.895 31 124 31.8954 124 33V38H119C117.895 38 117 38.8954 117 40V44C117 45.1046 117.895 46 119 46H124V51C124 52.1046 124.895 53 126 53H130C131.105 53 132 52.1046 132 51V46H137Z" fill="white"/>
<path fill-rule="evenodd" clip-rule="evenodd" d="M126.5 42C126.5 41.1716 127.172 40.5 128 40.5C128.828 40.5 129.5 41.1716 129.5 42C129.5 42.8284 128.828 43.5 128 43.5C127.172 43.5 126.5 42.8284 126.5 42ZM125.5 42C125.5 40.6193 126.619 39.5 128 39.5C129.381 39.5 130.5 40.6193 130.5 42C130.5 43.3807 129.381 44.5 128 44.5C126.619 44.5 125.5 43.3807 125.5 42Z" fill="white"/>
<path fill-rule="evenodd" clip-rule="evenodd" d="M136 42L135.25 42.433V41.567L136 42ZM136.625 41.7835C136.792 41.8797 136.792 42.1203 136.625 42.2165L135.125 43.0825C134.958 43.1788 134.75 43.0585 134.75 42.866V41.134C134.75 40.9415 134.958 40.8212 135.125 40.9175L136.625 41.7835Z" fill="white"/>
<path fill-rule="evenodd" clip-rule="evenodd" d="M128 50L127.567 49.25H128.433L128 50ZM128.217 50.625C128.12 50.7917 127.88 50.7917 127.783 50.625L126.917 49.125C126.821 48.9583 126.942 48.75 127.134 48.75H128.866C129.058 48.75 129.179 48.9583 129.083 49.125L128.217 50.625Z" fill="white"/>
<path fill-rule="evenodd" clip-rule="evenodd" d="M128 34L128.433 34.75H127.567L128 34ZM127.783 33.375C127.88 33.2083 128.12 33.2083 128.217 33.375L129.083 34.875C129.179 35.0417 129.058 35.25 128.866 35.25H127.134C126.942 35.25 126.821 35.0417 126.917 34.875L127.783 33.375Z" fill="white"/>
<path fill-rule="evenodd" clip-rule="evenodd" d="M120 42L120.75 41.567V42.433L120 42ZM119.375 42.2165C119.208 42.1203 119.208 41.8797 119.375 41.7835L120.875 40.9175C121.042 40.8212 121.25 40.9415 121.25 41.134V42.866C121.25 43.0585 121.042 43.1788 120.875 43.0825L119.375 42.2165Z" fill="white"/>
<path fill-rule="evenodd" clip-rule="evenodd" d="M117.764 77.1482C117.592 76.3379 118.109 75.5414 118.92 75.3691C119.73 75.1969 120.526 75.7142 120.699 76.5245C120.871 77.3348 120.354 78.1313 119.543 78.3036C118.733 78.4758 117.937 77.9585 117.764 77.1482ZM116.786 77.3561C116.499 76.0056 117.361 74.678 118.712 74.391C120.062 74.1039 121.39 74.966 121.677 76.3166C121.964 77.6671 121.102 78.9946 119.751 79.2817C118.401 79.5688 117.073 78.7067 116.786 77.3561Z" fill="white"/>
<path fill-rule="evenodd" clip-rule="evenodd" d="M118.92 75.3691L127.723 73.4979C128.533 73.3257 129.33 73.843 129.502 74.6533C129.674 75.4636 129.157 76.2601 128.347 76.4324L119.543 78.3036C118.733 78.4758 117.937 77.9585 117.764 77.1482C117.592 76.3379 118.109 75.5414 118.92 75.3691ZM127.515 72.5198C128.866 72.2327 130.193 73.0948 130.48 74.4454C130.767 75.7959 129.905 77.1235 128.555 77.4105L119.751 79.2817C118.401 79.5688 117.073 78.7067 116.786 77.3561C116.499 76.0056 117.361 74.6781 118.712 74.391L127.515 72.5198Z" fill="white"/>
<path fill-rule="evenodd" clip-rule="evenodd" d="M117.764 70.1482C117.592 69.3379 118.109 68.5414 118.92 68.3691C119.73 68.1969 120.526 68.7142 120.699 69.5245C120.871 70.3348 120.354 71.1313 119.543 71.3036C118.733 71.4758 117.937 70.9585 117.764 70.1482ZM116.786 70.3561C116.499 69.0056 117.361 67.6781 118.712 67.391C120.062 67.1039 121.39 67.966 121.677 69.3166C121.964 70.6671 121.102 71.9947 119.751 72.2817C118.401 72.5688 117.073 71.7067 116.786 70.3561Z" fill="white"/>
<path fill-rule="evenodd" clip-rule="evenodd" d="M118.92 68.3691L127.723 66.4979C128.533 66.3257 129.33 66.843 129.502 67.6533C129.674 68.4636 129.157 69.2601 128.347 69.4324L119.543 71.3036C118.733 71.4758 117.937 70.9585 117.764 70.1482C117.592 69.3379 118.109 68.5414 118.92 68.3691ZM127.515 65.5198C128.866 65.2327 130.193 66.0948 130.48 67.4454C130.767 68.7959 129.905 70.1235 128.555 70.4105L119.751 72.2817C118.401 72.5688 117.073 71.7067 116.786 70.3561C116.499 69.0056 117.361 67.6781 118.712 67.391L127.515 65.5198Z" fill="white"/>
<path d="M23.7505 25.9194C23.8311 25.9932 23.9341 26.03 24.0596 26.03C24.2148 26.03 24.3369 25.9802 24.4258 25.8806C24.5146 25.7805 24.5591 25.6433 24.5591 25.469C24.5591 25.2805 24.5085 25.1353 24.4075 25.0332C24.3196 24.9443 24.2078 24.8999 24.072 24.8999C23.8904 24.8999 23.7576 24.9595 23.6736 25.0786C23.6272 25.1455 23.6023 25.2126 23.5989 25.28H23.8245C23.8391 25.2283 23.8579 25.1892 23.8809 25.1628C23.9219 25.116 23.9827 25.0925 24.0632 25.0925C24.1453 25.0925 24.21 25.1257 24.2573 25.1921C24.3047 25.2581 24.3284 25.3516 24.3284 25.4727C24.3284 25.5938 24.3035 25.6846 24.2537 25.7451C24.2034 25.8052 24.1396 25.8352 24.0625 25.8352C23.9834 25.8352 23.9231 25.8093 23.8816 25.7576C23.8586 25.7297 23.8396 25.688 23.8245 25.6323H23.6011C23.6206 25.75 23.6704 25.8457 23.7505 25.9194Z" fill="white"/>
<path d="M23.4282 24.9204H23.2026V25.8059H22.668V26H23.4282V24.9204Z" fill="white"/>
<path d="M21.8792 25.7781H22.2769L22.3516 26H22.5874L22.2021 24.9204H21.9473L21.5649 26H21.8096L21.8792 25.7781ZM21.9421 25.592L22.0769 25.1672L22.2161 25.592H21.9421Z" fill="white"/>
<path d="M20.6655 25.9194C20.7461 25.9932 20.8491 26.03 20.9746 26.03C21.1299 26.03 21.252 25.9802 21.3408 25.8806C21.4297 25.7805 21.4741 25.6433 21.4741 25.469C21.4741 25.2805 21.4236 25.1353 21.3225 25.0332C21.2346 24.9443 21.1228 24.8999 20.9871 24.8999C20.8054 24.8999 20.6726 24.9595 20.5886 25.0786C20.5422 25.1455 20.5173 25.2126 20.5139 25.28H20.7395C20.7542 25.2283 20.7729 25.1892 20.7959 25.1628C20.8369 25.116 20.8977 25.0925 20.9783 25.0925C21.0603 25.0925 21.125 25.1257 21.1724 25.1921C21.2197 25.2581 21.2434 25.3516 21.2434 25.4727C21.2434 25.5938 21.2185 25.6846 21.1687 25.7451C21.1184 25.8052 21.0547 25.8352 20.9775 25.8352C20.8984 25.8352 20.8381 25.8093 20.7966 25.7576C20.7737 25.7297 20.7546 25.688 20.7395 25.6323H20.5161C20.5356 25.75 20.5854 25.8457 20.6655 25.9194Z" fill="white"/>
<path d="M19.3867 26H19.6768L20.01 25.5283L20.1177 25.6389V26H20.3396V24.9204H20.1177V25.365L19.7009 24.9204H19.4094L19.8518 25.365L19.3867 26Z" fill="white"/>
<path d="M80.5613 61.5V59.625H79.9363V59.8337H79.7281V60.0419H79.52V59.8337H79.3113V59.625H78.6863V61.5H79.3113V60.25H79.52V60.4587H79.7281V60.25H79.9363V61.5H80.5613Z" fill="white"/>
<path d="M77.4375 61.2919V60.875H77.8538V61.2919H77.4375ZM78.2706 61.5V61.2919H78.4788V60.875H78.2706V60.6669H77.4375V60.4587H78.2706V60.25H77.0206V60.4587H76.8125V61.5H78.2706Z" fill="white"/>
<path d="M75.5625 61.2919V60.4587H75.9788V61.2919H75.5625ZM76.3956 62.125V61.9163H76.6038V61.7081H75.9788V61.9163H75.5625V61.5H76.3956V61.2919H76.6038V60.4587H76.3956V60.25H74.9375V61.9163H75.1456V62.125H76.3956Z" fill="white"/>
<path d="M74.7288 61.5V60.25H74.1038V61.5H74.7288ZM74.7288 59.8337V59.625H74.1038V59.8337H74.7288Z" fill="white"/>
<path d="M73.6881 61.5V61.2919H73.8962V60.4587H73.6881V60.25H72.6462V60.4587H73.2712V61.2919H72.6462V61.5H73.6881Z" fill="white"/>
<path d="M68.7288 61.5V61.2919H68.5206V59.8337H68.7288V59.625H67.6875V59.8337H67.8956V61.2919H67.6875V61.5H68.7288Z" fill="white"/>
<path d="M67.2706 61.5V61.2919H67.4788V59.625H66.8538V60.25H66.4375V60.4587H66.8538V61.2919H66.4375V61.5H67.2706Z" fill="white"/>
<path d="M65.1875 60.6669V60.4587H65.6038V60.6669H65.1875ZM66.0206 61.5V61.2919H66.2288V60.4587H66.0206V60.25H64.7706V60.4587H64.5625V60.875H65.6038V61.2919H64.7706V61.5H66.0206Z" fill="white"/>
<path d="M64.3538 61.5V60.25H63.5206V60.4587H63.3125V60.25H62.6875V60.4587H62.4788V61.5H63.1038V60.6669H63.3125V61.0837H63.5206V60.6669H63.7288V61.5H64.3538Z" fill="white"/>
<path d="M57.7712 60.4587V59.8337H58.1875V60.4587H57.7712ZM58.8125 61.5V59.625H57.3544V59.8337H57.1462V60.4587H57.3544V60.6669H57.5625V60.875H57.3544V61.0837H57.1462V61.5H57.7712V61.0837H57.9794V60.875H58.1875V61.5H58.8125Z" fill="white"/>
<path d="M56.7294 61.5V61.2919H56.9375V60.25H56.3125V61.2919H55.8962V60.25H55.2712V61.2919H55.4794V61.5H56.7294Z" fill="white"/>
<path d="M55.0625 61.5V60.25H53.6044V60.4587H53.3962V61.5H54.0212V60.4587H54.4375V61.5H55.0625Z" fill="white"/>
<path d="M92.75 60.4587V59.8337H93.1663V60.4587H92.75ZM93.7913 61.5V60.0419H93.5831V59.8337H93.375V59.625H92.5413V59.8337H92.3331V60.0419H92.125V61.5H92.75V60.6669H93.1663V61.5H93.7913Z" fill="white"/>
<path d="M91.7081 61.5V61.2919H91.9163V59.625H91.2913V60.25H90.875V60.4587H91.2913V61.2919H90.875V61.5H91.7081Z" fill="white"/>
<path d="M90.4581 61.5V61.2919H90.6663V59.625H90.0413V60.25H89.625V60.4587H90.0413V61.2919H89.625V61.5H90.4581Z" fill="white"/>
<path d="M88.375 61.2919V60.875H88.7913V61.2919H88.375ZM89.2081 61.5V61.2919H89.4163V60.875H89.2081V60.6669H88.375V60.4587H89.2081V60.25H87.9581V60.4587H87.75V61.5H89.2081Z" fill="white"/>
<path d="M87.3331 61.5V61.2919H87.5413V60.4587H87.3331V60.25H86.2913V60.4587H86.9163V61.2919H86.2913V61.5H87.3331Z" fill="white"/>
<path d="M86.0837 61.5V59.625H85.4587V60.6669H85.2506V60.4587H85.0425V60.25H84.4175V60.4587H84.6256V60.6669H84.8337V60.875H84.6256V61.0837H84.4175V61.5H85.0425V61.0837H85.2506V60.875H85.4587V61.5H86.0837Z" fill="white"/>
<path d="M98 57H53V58H98V57Z" fill="white"/>
<path d="M98 63H53V64H98V63Z" fill="white"/>
<path d="M98 57H101V58H100V59H101V58H102V59V60V63H101V62H100V63H101V64H98V63H99V61H101V60H99V58H98V57Z" fill="white"/>
<path d="M53 64H50V63H51V62H50V63H49V62V61V58H50V59H51V58H50V57H53V58H52V60H50V61H52V63H53V64Z" fill="white"/>
<path fill-rule="evenodd" clip-rule="evenodd" d="M92.5 46.5H93V47H86.5V46.5H86V45.5H85.5V43.5H86V42.5H86.5V42H90.5V42.5H91V43H91.5V44.5H92V46H92.5V46.5ZM89 43.5V44H88.5V43.5H89ZM86.5 43.5H87V44H86.5V43.5ZM87 45H88.5V45.5H87V45Z" fill="white"/>
<path fill-rule="evenodd" clip-rule="evenodd" d="M92.5 37.5H93V38H86.5V37.5H86V36.5H85.5V34.5H86V33.5H86.5V33H90.5V33.5H91V34H91.5V35.5H92V37H92.5V37.5ZM89 34.5V35H88.5V34.5H89ZM86.5 34.5H87V35H86.5V34.5ZM87 36H88.5V36.5H87V36Z" fill="white"/>
<path fill-rule="evenodd" clip-rule="evenodd" d="M100.5 45V47H100V46.5H99.5V46H98.5V46.5H98V47H97.5V44.5H98V45H98.5V45.5H100V45H99V44H100V43.5H99V43H98.5V42.5H100V42H100.5V41.5H101V42H101.5V43.5H101V44H100.5V44.5H100V45H100.5ZM100 42.5V43.5H100.5V42.5H100Z" fill="white"/>
<path fill-rule="evenodd" clip-rule="evenodd" d="M100.5 40V41.5H99.5V42H99V41.5H98.5V42H98V41.5H97.5V40H98V39.5H100V40H100.5ZM99.5 40.5V41H99V40.5H99.5ZM98.5 40.5V41H98V40.5H98.5Z" fill="white"/>
<path d="M100.5 52.5H102V51.5H101.5V51H100.5V51.5H100V52H97.5V54H100V52H100.5V52.5Z" fill="white"/>
<path d="M101.5 54.5V53.5H100.5V54.5H101.5Z" fill="white"/>
<path d="M100.5 55V56H100V55.5H99.5V55H98V56H97.5V54.5H100V55H100.5Z" fill="white"/>
<path d="M97 54V56H96.5V54H97Z" fill="white"/>
<path d="M97 52.5V53.5H96V52.5H97Z" fill="white"/>
<path fill-rule="evenodd" clip-rule="evenodd" d="M99.5 51V51.5H98V51H97.5V49.5H98V49H100V49.5H100.5V50.5H100V51H99.5ZM99.5 50.5V50H99V50.5H99.5ZM98 50H98.5V50.5H98V50Z" fill="white"/>
<path d="M97 51.5V52H96.5V50V48.5V48H97V51H97.5V51.5H97Z" fill="white"/>
<path d="M54.5 33V31.5H54V33H54.5Z" fill="white"/>
<path d="M54.5 30.5V31H52.5V31.5H53.5V33H51.5V30.5H52V30H54V30.5H54.5Z" fill="white"/>
<path d="M50 33H51.5V33.5H50V33Z" fill="white"/>
<path d="M49.5 33.5H50V34H49.5V33.5Z" fill="white"/>
<path d="M49 34H49.5V36H49V34Z" fill="white"/>
<path d="M49.5 36.5V36H50V36.5H49.5Z" fill="white"/>
<path d="M54 37.5V38H53.5V37H52.5V37.5H52V38H51.5V37H50V36.5H52V36H52.5V34H52V33.5H54.5V34H55V34.5V35V35.5H54.5V37.5H54Z" fill="white"/>
<path d="M56 44.5H55V43.5H56V44.5Z" fill="white"/>
<path d="M55 41.5H54V42H53V42.5H49V42H50V41.5H50.5V40H50V39.5H49.5V39H51.5V39.5H52.5V40H53.5V41H55V41.5Z" fill="white"/>
<path d="M54.5 43.5H54V44H53.5V45H53V44H51V43.5H49.5V44H50V44.5H50.5V45.5H50V46H49.5V46.5H49V47H54.5V46.5H54V44H54.5V43.5Z" fill="white"/>
<path d="M56 53.5H55V52.5H56V53.5Z" fill="white"/>
<path d="M55 50.5H54V51H53V51.5H49V51H50V50.5H50.5V49H50V48.5H49.5V48H51.5V48.5H52.5V49H53.5V50H55V50.5Z" fill="white"/>
<path d="M54.5 52.5H54V53H53.5V54H53V53H51V52.5H49.5V53H50V53.5H50.5V54.5H50V55H49.5V55.5H49V56H54.5V55.5H54V53H54.5V52.5Z" fill="white"/>
<path d="M96.5 34V35H95.5V34H96.5Z" fill="white"/>
<path fill-rule="evenodd" clip-rule="evenodd" d="M102 38V37.5H101.5V36H101V35H100.5V33.5H101V33H101.5V32H101V31H100.5V30.5H99.5V30H98.5V30.5H98V31H100V31.5H100.5V33H100V34H99.5V34.5H98.5V34H98V37H97.5V38H102ZM98 34V33H98.5V34H99.5V33H100V32.5H99.5V32H100V31.5H98V31H97.5V34H98ZM101.5 33V33.5H102V33H101.5ZM98.5 32H98V32.5H98.5V32Z" fill="white"/>
<path d="M131 98.25H132V100H131V98.25Z" fill="white"/>
<path d="M129 98.25H130V100H129V98.25Z" fill="white"/>
<path d="M127 98.25H128V100H127V98.25Z" fill="white"/>
<path fill-rule="evenodd" clip-rule="evenodd" d="M132.75 98.25C133.716 98.25 134.5 97.4665 134.5 96.5C134.5 95.5335 133.716 94.75 132.75 94.75H121.25C120.284 94.75 119.5 95.5335 119.5 96.5C119.5 97.4665 120.284 98.25 121.25 98.25H127V99.25H121.25C119.731 99.25 118.5 98.0188 118.5 96.5C118.5 94.9812 119.731 93.75 121.25 93.75H132.75C134.269 93.75 135.5 94.9812 135.5 96.5C135.5 98.0188 134.269 99.25 132.75 99.25H132V98.25H132.75Z" fill="white"/>
<path fill-rule="evenodd" clip-rule="evenodd" d="M134.5 96.5C134.5 96.7761 134.724 97 135 97L143 97C143.276 97 143.5 96.7761 143.5 96.5C143.5 96.2239 143.276 96 143 96L135 96C134.724 96 134.5 96.2239 134.5 96.5Z" fill="white"/>
<path fill-rule="evenodd" clip-rule="evenodd" d="M102 96.5C102 96.2239 102.224 96 102.5 96H119C119.276 96 119.5 96.2239 119.5 96.5C119.5 96.7761 119.276 97 119 97H102.5C102.224 97 102 96.7761 102 96.5Z" fill="white"/>
<path d="M12 1.75L11 1.75V0L12 0V1.75Z" fill="white"/>
<path d="M14 1.75L13 1.75V0L14 0V1.75Z" fill="white"/>
<path d="M16 1.75L15 1.75V0L16 0V1.75Z" fill="white"/>
<path fill-rule="evenodd" clip-rule="evenodd" d="M16.25 6.25C17.7688 6.25 19 5.01878 19 3.5C19 1.98122 17.7688 0.75 16.25 0.75H15V1.75H16.25C17.2165 1.75 18 2.5335 18 3.5C18 4.4665 17.2165 5.25 16.25 5.25L10.75 5.25C9.7835 5.25 9 4.4665 9 3.5C9 2.5335 9.7835 1.75 10.75 1.75L12 1.75V0.75L10.75 0.75C9.23122 0.75 8 1.98122 8 3.5C8 5.01878 9.23122 6.25 10.75 6.25L16.25 6.25ZM13 0.75H14V1.75H13V0.75Z" fill="white"/>
<path fill-rule="evenodd" clip-rule="evenodd" d="M6.5 3.5C6.5 3.77614 6.72386 4 7 4L8.5 4C8.77614 4 9 3.77614 9 3.5C9 3.22386 8.77614 3 8.5 3L7 3C6.72386 3 6.5 3.22386 6.5 3.5Z" fill="white"/>
<path fill-rule="evenodd" clip-rule="evenodd" d="M18.5 3.49138C18.5 3.77228 18.7277 4 19.0086 4L47.4914 4C47.7723 4 48 3.77228 48 3.49138C48 3.21047 47.7723 2.98276 47.4914 2.98276L19.0086 2.98276C18.7277 2.98276 18.5 3.21048 18.5 3.49138Z" fill="white"/>
</svg>
