<svg width="150" height="100" viewBox="0 0 150 100" fill="none" xmlns="http://www.w3.org/2000/svg">
<path d="M3.5 80.5L2.63397 82H4.36603L3.5 80.5Z" stroke="#FFD700" stroke-width="0.5"/>
<path d="M3.5 86.75L4.36603 85.25H2.63397L3.5 86.75Z" stroke="#FFD700" stroke-width="0.5"/>
<path d="M96 39.5H96.5V41.5H97V42H97.5V42.5H98V43H98.5V43.5H99V44H98.5V44.5H98V44H97V43.5H96.5V43H96V42.5H95.5V40H96V39.5Z" fill="#FFD700"/>
<path d="M96.5 48.5H96V48H95V48.5H94.5V50H95V50.5H96V50H96.5V48.5Z" fill="#FFD700"/>
<path d="M56.5 30.5V34.5H56V30.5H56.5Z" fill="#FFD700"/>
<path d="M57 35H56.5V34.5H57V35Z" fill="#FFD700"/>
<path d="M56.5 36H56V35H56.5V36Z" fill="#FFD700"/>
<path d="M55.5 36.5V36H56V36.5H55.5Z" fill="#FFD700"/>
<path d="M55 36V35.5V35H55.5V36H55Z" fill="#FFD700"/>
<path d="M52 34H50V36H52V34Z" fill="#FFD700"/>
<path d="M55.5 34.5H55V34V30.5H55.5V34.5Z" fill="#FFD700"/>
<path d="M56 30.5H55.5V30H56V30.5Z" fill="#FFD700"/>
<path d="M56 47H55.5V45H56V47Z" fill="#FFD700"/>
<path d="M56 43H55.5V40.5H55V39H56V43Z" fill="#FFD700"/>
<path d="M56 56H55.5V54H56V56Z" fill="#FFD700"/>
<path d="M56 52H55.5V49.5H55V48H56V52Z" fill="#FFD700"/>
<path d="M96.5 60H97V61H96.5V61.5H95.5V61H95V60H95.5V59.5H96.5V60Z" fill="#FFD700"/>
<path d="M96.5 35.5V38H96V35.5H96.5Z" fill="#FFD700"/>
<path fill-rule="evenodd" clip-rule="evenodd" d="M96.5 33.5V32H97V30.5H96.5V30H95.5V30.5H95V31H95.5V31.5H95V32H95.5V32.5H96V33.5H96.5ZM96.5 31V31.5H96V31H96.5Z" fill="#FFD700"/>
<circle cx="1.5" cy="1.5" r="1.5" transform="matrix(0 -1 -1 0 29 27)" fill="#FFD700"/>
<path d="M121.5 96.5L123 97.366V95.634L121.5 96.5Z" stroke="#FFD700" stroke-width="0.5"/>
<rect x="-0.25" y="0.25" width="2" height="2" rx="1" transform="matrix(-1 0 0 1 127.75 95.25)" stroke="#FFD700" stroke-width="0.5"/>
<path d="M132.5 96.5L131 95.634V97.366L132.5 96.5Z" stroke="#FFD700" stroke-width="0.5"/>
<rect x="-0.25" y="0.25" width="2" height="2" rx="1" transform="matrix(-1 0 0 1 14.25 2.25)" stroke="#FFD700" stroke-width="0.5"/>
<path d="M90 40.5V41H90.5V40.5H90Z" fill="#808080"/>
<path d="M88 42V41.5H88.5V41H90V41.5H89.5V42H88Z" fill="#808080"/>
<path d="M90 31.5V32H90.5V31.5H90Z" fill="#808080"/>
<path d="M88 33V32.5H88.5V32H90V32.5H89.5V33H88Z" fill="#808080"/>
<path d="M52 52H52.5V52.5H52V52Z" fill="#808080"/>
<path d="M53.5 52H54V52.5H53.5V52Z" fill="#808080"/>
<path d="M52 43H52.5V43.5H52V43Z" fill="#808080"/>
<path d="M53.5 43H54V43.5H53.5V43Z" fill="#808080"/>
</svg>
