<svg width="150" height="100" viewBox="0 0 150 100" fill="none" xmlns="http://www.w3.org/2000/svg">
<path fill-rule="evenodd" clip-rule="evenodd" d="M27.6042 90.0581L10.9698 86.5514C10.6996 86.4944 10.4344 86.6673 10.3774 86.9375C10.3205 87.2077 10.4934 87.4729 10.7636 87.5299L27.3979 91.0366C27.6681 91.0935 27.9334 90.9207 27.9903 90.6505C28.0473 90.3803 27.8744 90.115 27.6042 90.0581ZM9.39895 86.7312C9.22807 87.5418 9.74667 88.3375 10.5573 88.5083L27.1917 92.0151C28.0023 92.186 28.7979 91.6674 28.9688 90.8567C29.1397 90.0461 28.6211 89.2505 27.8105 89.0796L11.1761 85.5729C10.3655 85.402 9.56984 85.9206 9.39895 86.7312Z" fill="white"/>
<path fill-rule="evenodd" clip-rule="evenodd" d="M29.2545 82.2301L12.6201 78.7234C12.3499 78.6664 12.0846 78.8393 12.0277 79.1095C11.9707 79.3797 12.1436 79.6449 12.4138 79.7019L29.0482 83.2086C29.3184 83.2656 29.5836 83.0927 29.6406 82.8225C29.6975 82.5523 29.5247 82.2871 29.2545 82.2301ZM11.0492 78.9032C10.8783 79.7138 11.3969 80.5095 12.2075 80.6804L28.8419 84.1871C29.6525 84.358 30.4482 83.8394 30.6191 83.0288C30.7899 82.2182 30.2714 81.4225 29.4607 81.2516L12.8263 77.7449C12.0157 77.574 11.2201 78.0926 11.0492 78.9032Z" fill="white"/>
<path fill-rule="evenodd" clip-rule="evenodd" d="M28.4293 86.1441L11.7949 82.6374C11.5247 82.5804 11.2595 82.7533 11.2026 83.0235C11.1456 83.2937 11.3185 83.5589 11.5887 83.6159L28.223 87.1226C28.4933 87.1796 28.7585 87.0067 28.8154 86.7365C28.8724 86.4663 28.6995 86.2011 28.4293 86.1441ZM10.2241 82.8172C10.0532 83.6278 10.5718 84.4235 11.3824 84.5944L28.0168 88.1011C28.8274 88.272 29.623 87.7534 29.7939 86.9428C29.9648 86.1322 29.4462 85.3365 28.6356 85.1656L12.0012 81.6589C11.1906 81.488 10.3949 82.0066 10.2241 82.8172Z" fill="white"/>
<path fill-rule="evenodd" clip-rule="evenodd" d="M48 96.5C48 96.2239 47.7761 96 47.5 96H31C30.7239 96 30.5 96.2239 30.5 96.5C30.5 96.7761 30.7239 97 31 97H47.5C47.7761 97 48 96.7761 48 96.5Z" fill="white"/>
<path fill-rule="evenodd" clip-rule="evenodd" d="M15.5 96.5C15.5 96.7761 15.2761 97 15 97L7 97C6.72386 97 6.5 96.7761 6.5 96.5C6.5 96.2239 6.72386 96 7 96L15 96C15.2761 96 15.5 96.2239 15.5 96.5Z" fill="white"/>
<path fill-rule="evenodd" clip-rule="evenodd" d="M143.5 96.4941C143.5 96.2212 143.279 96 143.006 96H101.994C101.721 96 101.5 96.2212 101.5 96.4941C101.5 96.767 101.721 96.9882 101.994 96.9882H143.006C143.279 96.9882 143.5 96.767 143.5 96.4941Z" fill="white"/>
<path fill-rule="evenodd" clip-rule="evenodd" d="M147 71.5C147 71.7761 146.776 72 146.5 72H119.5C119.224 72 119 71.7761 119 71.5C119 71.2239 119.224 71 119.5 71H146.5C146.776 71 147 71.2239 147 71.5Z" fill="white"/>
<path fill-rule="evenodd" clip-rule="evenodd" d="M119.35 72C119.074 72 118.85 71.7761 118.85 71.5L118.85 52C118.85 51.7239 119.074 51.5 119.35 51.5C119.626 51.5 119.85 51.7239 119.85 52L119.85 71.5C119.85 71.7761 119.626 72 119.35 72Z" fill="white"/>
<path fill-rule="evenodd" clip-rule="evenodd" d="M119.35 21C119.074 21 118.85 20.7761 118.85 20.5L118.85 4C118.85 3.72386 119.074 3.5 119.35 3.5C119.626 3.5 119.85 3.72386 119.85 4L119.85 20.5C119.85 20.7761 119.626 21 119.35 21Z" fill="white"/>
<path fill-rule="evenodd" clip-rule="evenodd" d="M3.5 6.5C3.22386 6.5 3 6.72386 3 7L3 46.5C3 46.7761 3.22386 47 3.5 47C3.77614 47 4 46.7761 4 46.5L4 7C4 6.72386 3.77614 6.5 3.5 6.5Z" fill="white"/>
<path fill-rule="evenodd" clip-rule="evenodd" d="M3.5 53C3.22386 53 3 53.2239 3 53.5L3 93C3 93.2761 3.22386 93.5 3.5 93.5C3.77614 93.5 4 93.2761 4 93L4 53.5C4 53.2239 3.77614 53 3.5 53Z" fill="white"/>
<path fill-rule="evenodd" clip-rule="evenodd" d="M96 3.5C96 3.22386 95.7761 3 95.5 3H54.5C54.2239 3 54 3.22386 54 3.5C54 3.77614 54.2239 4 54.5 4H95.5C95.7761 4 96 3.77614 96 3.5Z" fill="white"/>
<path fill-rule="evenodd" clip-rule="evenodd" d="M96 96.5C96 96.2239 95.7761 96 95.5 96H54.5C54.2239 96 54 96.2239 54 96.5C54 96.7761 54.2239 97 54.5 97H95.5C95.7761 97 96 96.7761 96 96.5Z" fill="white"/>
<path fill-rule="evenodd" clip-rule="evenodd" d="M48 3.5C48 3.22386 47.7761 3 47.5 3H7C6.72386 3 6.5 3.22386 6.5 3.5C6.5 3.77614 6.72386 4 7 4H47.5C47.7761 4 48 3.77614 48 3.5Z" fill="white"/>
<path fill-rule="evenodd" clip-rule="evenodd" d="M146.5 79C146.224 79 146 78.7761 146 78.5L146 71.5C146 71.2239 146.224 71 146.5 71C146.776 71 147 71.2239 147 71.5L147 78.5C147 78.7761 146.776 79 146.5 79Z" fill="white"/>
<path fill-rule="evenodd" clip-rule="evenodd" d="M146.5 93.5C146.224 93.5 146 93.2761 146 93L146 89C146 88.7239 146.224 88.5 146.5 88.5C146.776 88.5 147 88.7239 147 89L147 93C147 93.2761 146.776 93.5 146.5 93.5Z" fill="white"/>
<path fill-rule="evenodd" clip-rule="evenodd" d="M143.5 3.5C143.5 3.77614 143.276 4 143 4L141.5 4C141.224 4 141 3.77614 141 3.5C141 3.22386 141.224 3 141.5 3L143 3C143.276 3 143.5 3.22386 143.5 3.5Z" fill="white"/>
<path fill-rule="evenodd" clip-rule="evenodd" d="M131.5 3.49999C131.5 3.77613 131.276 3.99999 131 3.99999L102 3.99999C101.724 3.99999 101.5 3.77613 101.5 3.49999C101.5 3.22385 101.724 2.99999 102 2.99999L131 2.99999C131.276 2.99999 131.5 3.22385 131.5 3.49999Z" fill="white"/>
<path fill-rule="evenodd" clip-rule="evenodd" d="M17.25 98.25C16.2835 98.25 15.5 97.4665 15.5 96.5C15.5 95.5335 16.2835 94.75 17.25 94.75H28.75C29.7165 94.75 30.5 95.5335 30.5 96.5C30.5 97.4665 29.7165 98.25 28.75 98.25H23V99.25H28.75C30.2688 99.25 31.5 98.0188 31.5 96.5C31.5 94.9812 30.2688 93.75 28.75 93.75H17.25C15.7312 93.75 14.5 94.9812 14.5 96.5C14.5 98.0188 15.7312 99.25 17.25 99.25H18V98.25H17.25Z" fill="white"/>
<path fill-rule="evenodd" clip-rule="evenodd" d="M143.75 80.75C143.75 79.2312 144.981 78 146.5 78C148.019 78 149.25 79.2312 149.25 80.75V82H148.25V80.75C148.25 79.7835 147.466 79 146.5 79C145.534 79 144.75 79.7835 144.75 80.75V86.25C144.75 87.2165 145.534 88 146.5 88C147.466 88 148.25 87.2165 148.25 86.25V85H149.25V86.25C149.25 87.7688 148.019 89 146.5 89C144.981 89 143.75 87.7688 143.75 86.25V80.75ZM149.25 84V83H148.25V84H149.25Z" fill="white"/>
<path fill-rule="evenodd" clip-rule="evenodd" d="M133.75 6.25C132.231 6.25 131 5.01878 131 3.5C131 1.98122 132.231 0.75 133.75 0.75H135V1.75H133.75C132.784 1.75 132 2.5335 132 3.5C132 4.4665 132.784 5.25 133.75 5.25L139.25 5.25C140.216 5.25 141 4.4665 141 3.5C141 2.5335 140.216 1.75 139.25 1.75L138 1.75V0.75L139.25 0.75C140.769 0.75 142 1.98122 142 3.5C142 5.01878 140.769 6.25 139.25 6.25L133.75 6.25ZM137 0.75H136V1.75H137V0.75Z" fill="white"/>
<rect width="1" height="1.75" transform="matrix(-1 0 0 1 23 98.25)" fill="white"/>
<rect width="1" height="1.75" transform="matrix(-1 0 0 1 21 98.25)" fill="white"/>
<rect width="1" height="1.75" transform="matrix(-1 0 0 1 19 98.25)" fill="white"/>
<rect width="1" height="1.75" transform="matrix(0 1 1 0 148.25 85)" fill="white"/>
<rect width="1" height="1.75" transform="matrix(0 1 1 0 148.25 83)" fill="white"/>
<rect width="1" height="1.75" transform="matrix(0 1 1 0 148.25 81)" fill="white"/>
<rect width="1" height="1.75" transform="matrix(1 0 0 -1 138 1.75)" fill="white"/>
<rect width="1" height="1.75" transform="matrix(1 0 0 -1 136 1.75)" fill="white"/>
<rect width="1" height="1.75" transform="matrix(1 0 0 -1 134 1.75)" fill="white"/>
<rect x="138.781" y="84.3984" width="0.4375" height="0.328125" fill="white"/>
<path fill-rule="evenodd" clip-rule="evenodd" d="M137.403 81.69C137.455 81.6816 137.508 81.6987 137.545 81.736L139.007 83.1979L140.469 81.736C140.506 81.6987 140.559 81.6816 140.611 81.69C140.663 81.6985 140.708 81.7314 140.731 81.7786L142.309 84.9341C142.341 84.9972 142.328 85.0735 142.278 85.1234L139.123 88.2789C139.059 88.343 138.955 88.343 138.891 88.2789L135.735 85.1234C135.685 85.0735 135.673 84.9972 135.705 84.9341L137.282 81.7786C137.306 81.7314 137.351 81.6985 137.403 81.69ZM137.474 82.1289L136.051 84.975L139.007 87.9309L141.963 84.975L140.54 82.1289L139.123 83.5459C139.092 83.5767 139.05 83.594 139.007 83.594C138.963 83.594 138.922 83.5767 138.891 83.5459L137.474 82.1289Z" fill="white"/>
<path d="M135.917 80.5V79H136.417V79.167H136.583V79.3335H136.75V79.167H136.917V79H137.417V80.5H136.917V79.5H136.75V79.667H136.583V79.5H136.417V80.5H135.917Z" fill="white"/>
<path d="M137.583 80.5V79H138.083V79.667H138.416V79H138.916V79.5H138.75V79.667H138.583V79.8335H138.75V80H138.916V80.5H138.416V79.8335H138.083V80.5H137.583Z" fill="white"/>
<path d="M139.083 80.5V80.167H139.416V80.5H139.083Z" fill="white"/>
<path d="M140.083 80.5V80.3335H140.25V79.167H140.083V79H140.916V79.167H140.75V80.3335H140.916V80.5H140.083Z" fill="white"/>
<path d="M141.083 80.5V80.3335H141.25V79.167H141.083V79H141.916V79.167H141.75V80.3335H141.916V80.5H141.083Z" fill="white"/>
<path d="M139 88.2812L137.742 87.0098H140.23L139 88.2812Z" fill="white"/>
</svg>
