<svg width="150" height="100" viewBox="0 0 150 100" fill="none" xmlns="http://www.w3.org/2000/svg">
<g clip-path="url(#clip0_133_1472)">
<path fill-rule="evenodd" clip-rule="evenodd" d="M143.5 3.5C143.5 3.77614 143.276 4 143 4H102.5C102.224 4 102 3.77614 102 3.5C102 3.22386 102.224 3 102.5 3H143C143.276 3 143.5 3.22386 143.5 3.5Z" fill="white"/>
<path fill-rule="evenodd" clip-rule="evenodd" d="M146.5 93.5C146.224 93.5 146 93.2761 146 93L146 53.5C146 53.2239 146.224 53 146.5 53C146.776 53 147 53.2239 147 53.5L147 93C147 93.2761 146.776 93.5 146.5 93.5Z" fill="white"/>
<path fill-rule="evenodd" clip-rule="evenodd" d="M146.5 47C146.224 47 146 46.7761 146 46.5L146 7C146 6.72386 146.224 6.5 146.5 6.5C146.776 6.5 147 6.72386 147 7L147 46.5C147 46.7761 146.776 47 146.5 47Z" fill="white"/>
<path fill-rule="evenodd" clip-rule="evenodd" d="M3.5 78C3.22386 78 3 77.7848 3 77.5192L3 53.4808C3 53.2152 3.22386 53 3.5 53C3.77614 53 4 53.2152 4 53.4808L4 77.5192C4 77.7848 3.77614 78 3.5 78Z" fill="white"/>
<path fill-rule="evenodd" clip-rule="evenodd" d="M3.5 47C3.22386 47 3 46.7761 3 46.5L3 7C3 6.72386 3.22386 6.5 3.5 6.5C3.77614 6.5 4 6.72386 4 7L4 46.5C4 46.7761 3.77614 47 3.5 47Z" fill="white"/>
<path fill-rule="evenodd" clip-rule="evenodd" d="M96 96.5C96 96.7761 95.7761 97 95.5 97H54.5C54.2239 97 54 96.7761 54 96.5C54 96.2239 54.2239 96 54.5 96H95.5C95.7761 96 96 96.2239 96 96.5Z" fill="white"/>
<path fill-rule="evenodd" clip-rule="evenodd" d="M48 96.5C48 96.7761 47.7761 97 47.5 97L7 97C6.72386 97 6.5 96.7761 6.5 96.5C6.5 96.2239 6.72386 96 7 96L47.5 96C47.7761 96 48 96.2239 48 96.5Z" fill="white"/>
<path fill-rule="evenodd" clip-rule="evenodd" d="M96 3.5C96 3.77614 95.7761 4 95.5 4H54.5C54.2239 4 54 3.77614 54 3.5C54 3.22386 54.2239 3 54.5 3H95.5C95.7761 3 96 3.22386 96 3.5Z" fill="white"/>
<path fill-rule="evenodd" clip-rule="evenodd" d="M102 96.5C102 96.2239 102.224 96 102.5 96H119C119.276 96 119.5 96.2239 119.5 96.5C119.5 96.7761 119.276 97 119 97H102.5C102.224 97 102 96.7761 102 96.5Z" fill="white"/>
<path fill-rule="evenodd" clip-rule="evenodd" d="M134.5 96.5C134.5 96.7761 134.724 97 135 97L143 97C143.276 97 143.5 96.7761 143.5 96.5C143.5 96.2239 143.276 96 143 96L135 96C134.724 96 134.5 96.2239 134.5 96.5Z" fill="white"/>
<path fill-rule="evenodd" clip-rule="evenodd" d="M3.5 93.5C3.77614 93.5 4 93.2761 4 93L4 89C4 88.7239 3.77614 88.5 3.5 88.5C3.22386 88.5 3 88.7239 3 89L3 93C3 93.2761 3.22386 93.5 3.5 93.5Z" fill="white"/>
<path fill-rule="evenodd" clip-rule="evenodd" d="M6.5 3.5C6.5 3.77614 6.72386 4 7 4L8.5 4C8.77614 4 9 3.77614 9 3.5C9 3.22386 8.77614 3 8.5 3L7 3C6.72386 3 6.5 3.22386 6.5 3.5Z" fill="white"/>
<path fill-rule="evenodd" clip-rule="evenodd" d="M18.5 3.5C18.5 3.77614 18.7277 4 19.0086 4L47.4914 4C47.7723 4 48 3.77614 48 3.5C48 3.22386 47.7723 3 47.4914 3L19.0086 3C18.7277 3 18.5 3.22386 18.5 3.5Z" fill="white"/>
<path fill-rule="evenodd" clip-rule="evenodd" d="M12.996 94.5C12.7199 94.5 12.496 94.2761 12.496 94L12.496 7.50001C12.496 7.22386 12.7199 7.00001 12.996 7.00001C13.2722 7.00001 13.496 7.22386 13.496 7.50001L13.496 94C13.496 94.2761 13.2722 94.5 12.996 94.5Z" fill="white"/>
<path fill-rule="evenodd" clip-rule="evenodd" d="M10.996 88.5C10.7199 88.5 10.496 88.2761 10.496 88L10.496 12C10.496 11.7239 10.7199 11.5 10.996 11.5C11.2722 11.5 11.496 11.7239 11.496 12L11.496 88C11.496 88.2761 11.2722 88.5 10.996 88.5Z" fill="white"/>
<path fill-rule="evenodd" clip-rule="evenodd" d="M10.996 94.5C10.7199 94.5 10.496 94.2761 10.496 94L10.496 90C10.496 89.7239 10.7199 89.5 10.996 89.5C11.2722 89.5 11.496 89.7239 11.496 90L11.496 94C11.496 94.2761 11.2722 94.5 10.996 94.5Z" fill="white"/>
<path fill-rule="evenodd" clip-rule="evenodd" d="M10.996 10.5C10.7199 10.5 10.496 10.2761 10.496 10L10.496 7.5C10.496 7.22386 10.7199 7 10.996 7C11.2722 7 11.496 7.22386 11.496 7.5L11.496 10C11.496 10.2761 11.2722 10.5 10.996 10.5Z" fill="white"/>
<path fill-rule="evenodd" clip-rule="evenodd" d="M11.496 90C11.496 90.2761 11.2722 90.5 10.996 90.5H6.99603C6.71989 90.5 6.49603 90.2761 6.49603 90C6.49603 89.7239 6.71989 89.5 6.99603 89.5H10.996C11.2722 89.5 11.496 89.7239 11.496 90Z" fill="white"/>
<path fill-rule="evenodd" clip-rule="evenodd" d="M11.496 88C11.496 88.2761 11.2722 88.5 10.996 88.5H6.99603C6.71989 88.5 6.49603 88.2761 6.49603 88C6.49603 87.7239 6.71989 87.5 6.99603 87.5H10.996C11.2722 87.5 11.496 87.7239 11.496 88Z" fill="white"/>
<path fill-rule="evenodd" clip-rule="evenodd" d="M11.496 12C11.496 12.2761 11.2722 12.5 10.996 12.5H6.99603C6.71989 12.5 6.49603 12.2761 6.49603 12C6.49603 11.7239 6.71989 11.5 6.99603 11.5H10.996C11.2722 11.5 11.496 11.7239 11.496 12Z" fill="white"/>
<path fill-rule="evenodd" clip-rule="evenodd" d="M11.496 10C11.496 10.2761 11.2722 10.5 10.996 10.5H6.99603C6.71989 10.5 6.49603 10.2761 6.49603 10C6.49603 9.72386 6.71989 9.5 6.99603 9.5H10.996C11.2722 9.5 11.496 9.72386 11.496 10Z" fill="white"/>
<path fill-rule="evenodd" clip-rule="evenodd" d="M24.496 84.7C24.358 84.7 24.246 84.5881 24.246 84.45L24.246 53.95C24.246 53.8119 24.358 53.7 24.496 53.7C24.6341 53.7 24.746 53.8119 24.746 53.95L24.746 84.45C24.746 84.5881 24.6341 84.7 24.496 84.7Z" fill="white"/>
<path fill-rule="evenodd" clip-rule="evenodd" d="M22.496 84.7C22.358 84.7 22.246 84.5881 22.246 84.45L22.246 53.95C22.246 53.8119 22.358 53.7 22.496 53.7C22.6341 53.7 22.746 53.8119 22.746 53.95L22.746 84.45C22.746 84.5881 22.6341 84.7 22.496 84.7Z" fill="white"/>
<path fill-rule="evenodd" clip-rule="evenodd" d="M24.496 23.2C24.358 23.2 24.246 23.0881 24.246 22.95L24.246 15.45C24.246 15.3119 24.358 15.2 24.496 15.2C24.6341 15.2 24.746 15.3119 24.746 15.45L24.746 22.95C24.746 23.0881 24.6341 23.2 24.496 23.2Z" fill="white"/>
<path fill-rule="evenodd" clip-rule="evenodd" d="M22.496 23.2C22.358 23.2 22.246 23.0881 22.246 22.95L22.246 15.45C22.246 15.3119 22.358 15.2 22.496 15.2C22.6341 15.2 22.746 15.3119 22.746 15.45L22.746 22.95C22.746 23.0881 22.6341 23.2 22.496 23.2Z" fill="white"/>
<path fill-rule="evenodd" clip-rule="evenodd" d="M106.996 79.95C106.996 80.2261 106.772 80.45 106.496 80.45L103.496 80.45C103.22 80.45 102.996 80.2261 102.996 79.95C102.996 79.6739 103.22 79.45 103.496 79.45L106.496 79.45C106.772 79.45 106.996 79.6739 106.996 79.95Z" fill="white"/>
<path fill-rule="evenodd" clip-rule="evenodd" d="M106.996 66.95C106.996 67.2261 106.772 67.45 106.496 67.45L103.496 67.45C103.22 67.45 102.996 67.2261 102.996 66.95C102.996 66.6739 103.22 66.45 103.496 66.45L106.496 66.45C106.772 66.45 106.996 66.6739 106.996 66.95Z" fill="white"/>
<path fill-rule="evenodd" clip-rule="evenodd" d="M106.996 77.95C106.996 78.2261 106.772 78.45 106.496 78.45L103.496 78.45C103.22 78.45 102.996 78.2261 102.996 77.95C102.996 77.6739 103.22 77.45 103.496 77.45L106.496 77.45C106.772 77.45 106.996 77.6739 106.996 77.95Z" fill="white"/>
<path fill-rule="evenodd" clip-rule="evenodd" d="M106.996 64.95C106.996 65.2261 106.772 65.45 106.496 65.45L103.496 65.45C103.22 65.45 102.996 65.2261 102.996 64.95C102.996 64.6739 103.22 64.45 103.496 64.45L106.496 64.45C106.772 64.45 106.996 64.6739 106.996 64.95Z" fill="white"/>
<path fill-rule="evenodd" clip-rule="evenodd" d="M106.996 75.95C106.996 76.2261 106.772 76.45 106.496 76.45L103.496 76.45C103.22 76.45 102.996 76.2261 102.996 75.95C102.996 75.6739 103.22 75.45 103.496 75.45L106.496 75.45C106.772 75.45 106.996 75.6739 106.996 75.95Z" fill="white"/>
<path fill-rule="evenodd" clip-rule="evenodd" d="M106.996 62.95C106.996 63.2261 106.772 63.45 106.496 63.45L103.496 63.45C103.22 63.45 102.996 63.2261 102.996 62.95C102.996 62.6739 103.22 62.45 103.496 62.45L106.496 62.45C106.772 62.45 106.996 62.6739 106.996 62.95Z" fill="white"/>
<path fill-rule="evenodd" clip-rule="evenodd" d="M113.496 69.45C113.772 69.45 113.996 69.6739 113.996 69.95L113.996 72.95C113.996 73.2261 113.772 73.45 113.496 73.45C113.22 73.45 112.996 73.2261 112.996 72.95L112.996 69.95C112.996 69.6739 113.22 69.45 113.496 69.45Z" fill="white"/>
<path fill-rule="evenodd" clip-rule="evenodd" d="M100.496 69.45C100.772 69.45 100.996 69.6739 100.996 69.95L100.996 72.95C100.996 73.2261 100.772 73.45 100.496 73.45C100.22 73.45 99.996 73.2261 99.996 72.95L99.996 69.95C99.996 69.6739 100.22 69.45 100.496 69.45Z" fill="white"/>
<path fill-rule="evenodd" clip-rule="evenodd" d="M111.496 69.45C111.772 69.45 111.996 69.6739 111.996 69.95L111.996 72.95C111.996 73.2261 111.772 73.45 111.496 73.45C111.22 73.45 110.996 73.2261 110.996 72.95L110.996 69.95C110.996 69.6739 111.22 69.45 111.496 69.45Z" fill="white"/>
<path fill-rule="evenodd" clip-rule="evenodd" d="M98.496 69.45C98.7722 69.45 98.996 69.6739 98.996 69.95L98.996 72.95C98.996 73.2261 98.7722 73.45 98.496 73.45C98.2199 73.45 97.996 73.2261 97.996 72.95L97.996 69.95C97.996 69.6739 98.2199 69.45 98.496 69.45Z" fill="white"/>
<path fill-rule="evenodd" clip-rule="evenodd" d="M109.496 69.45C109.772 69.45 109.996 69.6739 109.996 69.95L109.996 72.95C109.996 73.2261 109.772 73.45 109.496 73.45C109.22 73.45 108.996 73.2261 108.996 72.95L108.996 69.95C108.996 69.6739 109.22 69.45 109.496 69.45Z" fill="white"/>
<path fill-rule="evenodd" clip-rule="evenodd" d="M96.496 69.45C96.7722 69.45 96.996 69.6739 96.996 69.95L96.996 72.95C96.996 73.2261 96.7722 73.45 96.496 73.45C96.2199 73.45 95.996 73.2261 95.996 72.95L95.996 69.95C95.996 69.6739 96.2199 69.45 96.496 69.45Z" fill="white"/>
<path fill-rule="evenodd" clip-rule="evenodd" d="M132.75 98.25C133.716 98.25 134.5 97.4665 134.5 96.5C134.5 95.5335 133.716 94.75 132.75 94.75H121.25C120.284 94.75 119.5 95.5335 119.5 96.5C119.5 97.4665 120.284 98.25 121.25 98.25H127V99.25H121.25C119.731 99.25 118.5 98.0188 118.5 96.5C118.5 94.9812 119.731 93.75 121.25 93.75H132.75C134.269 93.75 135.5 94.9812 135.5 96.5C135.5 98.0188 134.269 99.25 132.75 99.25H132V98.25H132.75Z" fill="white"/>
<path fill-rule="evenodd" clip-rule="evenodd" d="M6.25 80.75C6.25 79.2312 5.01878 78 3.5 78C1.98122 78 0.75 79.2312 0.75 80.75V82H1.75V80.75C1.75 79.7835 2.5335 79 3.5 79C4.4665 79 5.25 79.7835 5.25 80.75V86.25C5.25 87.2165 4.4665 88 3.5 88C2.5335 88 1.75 87.2165 1.75 86.25V85H0.75V86.25C0.75 87.7688 1.98122 89 3.5 89C5.01878 89 6.25 87.7688 6.25 86.25V80.75ZM0.75 84V83H1.75V84H0.75Z" fill="white"/>
<path fill-rule="evenodd" clip-rule="evenodd" d="M16.25 6.25C17.7688 6.25 19 5.01878 19 3.5C19 1.98122 17.7688 0.75 16.25 0.75H15V1.75H16.25C17.2165 1.75 18 2.5335 18 3.5C18 4.4665 17.2165 5.25 16.25 5.25L10.75 5.25C9.7835 5.25 9 4.4665 9 3.5C9 2.5335 9.7835 1.75 10.75 1.75L12 1.75V0.75L10.75 0.75C9.23122 0.75 8 1.98122 8 3.5C8 5.01878 9.23122 6.25 10.75 6.25L16.25 6.25ZM13 0.75H14V1.75H13V0.75Z" fill="white"/>
<path d="M127 98.25H128V100H127V98.25Z" fill="white"/>
<path d="M129 98.25H130V100H129V98.25Z" fill="white"/>
<path d="M131 98.25H132V100H131V98.25Z" fill="white"/>
<path d="M1.75 85V86H0V85H1.75Z" fill="white"/>
<path d="M1.75 83V84H0V83H1.75Z" fill="white"/>
<path d="M1.75 81V82H0V81H1.75Z" fill="white"/>
<path d="M12 1.75L11 1.75V0L12 0V1.75Z" fill="white"/>
<path d="M14 1.75L13 1.75V0L14 0V1.75Z" fill="white"/>
<path d="M16 1.75L15 1.75V0L16 0V1.75Z" fill="white"/>
<path fill-rule="evenodd" clip-rule="evenodd" d="M22.996 86.45H71.996C73.6529 86.45 74.996 85.1069 74.996 83.45V24.45C74.996 18.3749 70.0712 13.45 63.996 13.45H22.996C21.3392 13.45 19.996 14.7931 19.996 16.45V83.45C19.996 85.1069 21.3392 86.45 22.996 86.45ZM71.996 87.45C74.2052 87.45 75.996 85.6591 75.996 83.45V24.45C75.996 17.8226 70.6235 12.45 63.996 12.45H22.996C20.7869 12.45 18.996 14.2409 18.996 16.45V83.45C18.996 85.6591 20.7869 87.45 22.996 87.45H71.996Z" fill="white"/>
<path fill-rule="evenodd" clip-rule="evenodd" d="M28.496 73.45H66.496C66.7722 73.45 66.996 73.2261 66.996 72.95V25.95C66.996 25.6739 66.7722 25.45 66.496 25.45H28.496C28.2199 25.45 27.996 25.6739 27.996 25.95V72.95C27.996 73.2261 28.2199 73.45 28.496 73.45ZM66.496 74.45C67.3245 74.45 67.996 73.7784 67.996 72.95V25.95C67.996 25.1216 67.3245 24.45 66.496 24.45H28.496C27.6676 24.45 26.996 25.1216 26.996 25.95V72.95C26.996 73.7784 27.6676 74.45 28.496 74.45H66.496Z" fill="white"/>
<path fill-rule="evenodd" clip-rule="evenodd" d="M103.861 26.08C106.632 24.8006 107.842 21.5169 106.563 18.7456C105.283 15.9743 101.999 14.7648 99.2281 16.0441C96.4568 17.3235 95.2474 20.6072 96.5267 23.3785C97.8061 26.1498 101.09 27.3593 103.861 26.08ZM104.28 26.9879C107.553 25.4771 108.981 21.5992 107.47 18.3264C105.96 15.0537 102.082 13.6254 98.809 15.1362C95.5363 16.6471 94.108 20.5249 95.6188 23.7977C97.1296 27.0704 101.007 28.4987 104.28 26.9879Z" fill="white"/>
<path fill-rule="evenodd" clip-rule="evenodd" d="M109.788 38.9193C112.56 37.6399 113.769 34.3562 112.49 31.5849C111.21 28.8136 107.927 27.6041 105.155 28.8835C102.384 30.1628 101.175 33.4465 102.454 36.2178C103.733 38.9891 107.017 40.1986 109.788 38.9193ZM110.207 39.8272C113.48 38.3164 114.908 34.4385 113.398 31.1657C111.887 27.893 108.009 26.4647 104.736 27.9755C101.463 29.4864 100.035 33.3642 101.546 36.637C103.057 39.9097 106.935 41.338 110.207 39.8272Z" fill="white"/>
<path fill-rule="evenodd" clip-rule="evenodd" d="M114.465 30.673L108.538 17.8337C106.755 13.9715 102.179 12.2859 98.3163 14.0689C94.454 15.8519 92.7685 20.4282 94.5514 24.2904L100.479 37.1297C102.262 40.992 106.838 42.6775 110.7 40.8946C114.562 39.1116 116.248 34.5353 114.465 30.673ZM97.8971 13.161C93.5335 15.1754 91.6291 20.3459 93.6435 24.7095L99.5707 37.5489C101.585 41.9125 106.756 43.8169 111.119 41.8025C115.483 39.788 117.387 34.6176 115.373 30.2539L109.446 17.4146C107.431 13.0509 102.261 11.1465 97.8971 13.161Z" fill="white"/>
<path fill-rule="evenodd" clip-rule="evenodd" d="M104.996 56.45C96.7118 56.45 89.996 63.1657 89.996 71.45C89.996 79.7343 96.7118 86.45 104.996 86.45C113.28 86.45 119.996 79.7343 119.996 71.45C119.996 63.1657 113.28 56.45 104.996 56.45ZM104.996 55.45C96.1595 55.45 88.996 62.6134 88.996 71.45C88.996 80.2866 96.1595 87.45 104.996 87.45C113.833 87.45 120.996 80.2866 120.996 71.45C120.996 62.6134 113.833 55.45 104.996 55.45Z" fill="white"/>
<path fill-rule="evenodd" clip-rule="evenodd" d="M104.996 69.95C104.168 69.95 103.496 70.6216 103.496 71.45C103.496 72.2784 104.168 72.95 104.996 72.95C105.824 72.95 106.496 72.2784 106.496 71.45C106.496 70.6216 105.824 69.95 104.996 69.95ZM104.996 68.95C103.615 68.95 102.496 70.0693 102.496 71.45C102.496 72.8307 103.615 73.95 104.996 73.95C106.377 73.95 107.496 72.8307 107.496 71.45C107.496 70.0693 106.377 68.95 104.996 68.95Z" fill="white"/>
<path fill-rule="evenodd" clip-rule="evenodd" d="M107.996 74.45H113.996C114.548 74.45 114.996 74.0023 114.996 73.45V69.45C114.996 68.8977 114.548 68.45 113.996 68.45H107.996V62.45C107.996 61.8977 107.548 61.45 106.996 61.45H102.996C102.444 61.45 101.996 61.8977 101.996 62.45V68.45H95.996C95.4437 68.45 94.996 68.8977 94.996 69.45V73.45C94.996 74.0023 95.4437 74.45 95.996 74.45H101.996V80.45C101.996 81.0023 102.444 81.45 102.996 81.45H106.996C107.548 81.45 107.996 81.0023 107.996 80.45V74.45ZM108.996 80.45C108.996 81.5546 108.101 82.45 106.996 82.45H102.996C101.891 82.45 100.996 81.5546 100.996 80.45V75.45H95.996C94.8915 75.45 93.996 74.5546 93.996 73.45V69.45C93.996 68.3454 94.8915 67.45 95.996 67.45H100.996V62.45C100.996 61.3454 101.891 60.45 102.996 60.45H106.996C108.101 60.45 108.996 61.3454 108.996 62.45V67.45H113.996C115.101 67.45 115.996 68.3454 115.996 69.45V73.45C115.996 74.5546 115.101 75.45 113.996 75.45H108.996V80.45Z" fill="white"/>
<path fill-rule="evenodd" clip-rule="evenodd" d="M104.996 84.45L105.429 83.7H104.563L104.996 84.45ZM104.78 85.075C104.876 85.2417 105.116 85.2417 105.213 85.075L106.079 83.575C106.175 83.4083 106.055 83.2 105.862 83.2H104.13C103.938 83.2 103.817 83.4083 103.913 83.575L104.78 85.075Z" fill="white"/>
<path fill-rule="evenodd" clip-rule="evenodd" d="M117.996 71.45L117.246 71.017V71.883L117.996 71.45ZM118.621 71.6665C118.788 71.5703 118.788 71.3297 118.621 71.2335L117.121 70.3675C116.954 70.2712 116.746 70.3915 116.746 70.584V72.316C116.746 72.5085 116.954 72.6288 117.121 72.5325L118.621 71.6665Z" fill="white"/>
<path fill-rule="evenodd" clip-rule="evenodd" d="M91.996 71.45L92.746 71.883V71.017L91.996 71.45ZM91.371 71.2335C91.2044 71.3297 91.2044 71.5703 91.371 71.6665L92.871 72.5325C93.0377 72.6287 93.246 72.5085 93.246 72.316V70.584C93.246 70.3915 93.0377 70.2712 92.871 70.3675L91.371 71.2335Z" fill="white"/>
<path fill-rule="evenodd" clip-rule="evenodd" d="M104.996 58.45L104.563 59.2H105.429L104.996 58.45ZM105.213 57.825C105.116 57.6583 104.876 57.6583 104.78 57.825L103.914 59.325C103.817 59.4917 103.938 59.7 104.13 59.7H105.862C106.055 59.7 106.175 59.4917 106.079 59.325L105.213 57.825Z" fill="white"/>
<path fill-rule="evenodd" clip-rule="evenodd" d="M133.522 58.0312L130.169 50.7678C129.937 50.2664 129.343 50.0475 128.842 50.279C128.34 50.5105 128.121 51.1047 128.353 51.6061L131.706 58.8695C131.937 59.3709 132.531 59.5898 133.033 59.3583C133.534 59.1268 133.753 58.5326 133.522 58.0312ZM131.076 50.3487C130.614 49.3458 129.425 48.9081 128.422 49.3711C127.42 49.8341 126.982 51.0224 127.445 52.0252L130.798 59.2886C131.261 60.2915 132.449 60.7292 133.452 60.2662C134.455 59.8032 134.893 58.6149 134.43 57.6121L131.076 50.3487Z" fill="white"/>
<path fill-rule="evenodd" clip-rule="evenodd" d="M133.451 45.9484L130.098 38.685C129.866 38.1835 129.272 37.9647 128.771 38.1962C128.269 38.4277 128.05 39.0218 128.282 39.5233L131.635 46.7866C131.866 47.2881 132.461 47.5069 132.962 47.2754C133.463 47.0439 133.682 46.4498 133.451 45.9484ZM131.006 38.2658C130.543 37.263 129.354 36.8253 128.352 37.2883C127.349 37.7512 126.911 38.9395 127.374 39.9424L130.727 47.2058C131.19 48.2086 132.378 48.6463 133.381 48.1834C134.384 47.7204 134.822 46.5321 134.359 45.5292L131.006 38.2658Z" fill="white"/>
<path fill-rule="evenodd" clip-rule="evenodd" d="M141.702 21.9821L129.57 28.9683C129.33 29.1061 129.248 29.4118 129.386 29.6511C129.524 29.8904 129.829 29.9727 130.069 29.8349L142.201 22.8487C142.44 22.7109 142.523 22.4052 142.385 22.1659C142.247 21.9266 141.941 21.8443 141.702 21.9821ZM128.519 30.1501C128.933 30.868 129.85 31.1149 130.568 30.7015L142.7 23.7153C143.418 23.3019 143.665 22.3848 143.251 21.6669C142.838 20.949 141.921 20.7021 141.203 21.1155L129.071 28.1017C128.353 28.5151 128.106 29.4322 128.519 30.1501Z" fill="white"/>
<path fill-rule="evenodd" clip-rule="evenodd" d="M139.706 18.5157L127.574 25.5019C127.334 25.6397 127.252 25.9454 127.39 26.1847C127.528 26.424 127.833 26.5063 128.073 26.3685L140.205 19.3823C140.444 19.2445 140.527 18.9388 140.389 18.6995C140.251 18.4602 139.945 18.3779 139.706 18.5157ZM126.523 26.6837C126.937 27.4016 127.854 27.6485 128.572 27.2351L140.704 20.2489C141.422 19.8355 141.669 18.9184 141.255 18.2005C140.842 17.4826 139.925 17.2357 139.207 17.6491L127.075 24.6353C126.357 25.0487 126.11 25.9658 126.523 26.6837Z" fill="white"/>
<path fill-rule="evenodd" clip-rule="evenodd" d="M135.714 11.583L123.582 18.5691C123.342 18.7069 123.26 19.0126 123.398 19.2519C123.536 19.4912 123.841 19.5735 124.081 19.4357L136.213 12.4495C136.452 12.3118 136.535 12.006 136.397 11.7667C136.259 11.5274 135.953 11.4452 135.714 11.583ZM122.531 19.7509C122.945 20.4688 123.862 20.7157 124.58 20.3023L136.712 13.3161C137.43 12.9027 137.677 11.9856 137.263 11.2677C136.85 10.5498 135.933 10.303 135.215 10.7164L123.083 17.7025C122.365 18.1159 122.118 19.033 122.531 19.7509Z" fill="white"/>
<path fill-rule="evenodd" clip-rule="evenodd" d="M137.71 15.0494L125.578 22.0355C125.338 22.1733 125.256 22.479 125.394 22.7183C125.532 22.9576 125.837 23.0399 126.077 22.9021L138.209 15.9159C138.448 15.7782 138.531 15.4724 138.393 15.2331C138.255 14.9938 137.949 14.9116 137.71 15.0494ZM124.527 23.2173C124.941 23.9352 125.858 24.1821 126.576 23.7687L138.708 16.7825C139.426 16.3691 139.673 15.452 139.259 14.7341C138.846 14.0162 137.929 13.7694 137.211 14.1828L125.079 21.1689C124.361 21.5823 124.114 22.4994 124.527 23.2173Z" fill="white"/>
<path fill-rule="evenodd" clip-rule="evenodd" d="M133.718 8.11658L121.586 15.1027C121.346 15.2405 121.264 15.5462 121.402 15.7856C121.54 16.0249 121.845 16.1071 122.085 15.9693L134.217 8.98318C134.456 8.84538 134.538 8.53968 134.401 8.30038C134.263 8.06107 133.957 7.97879 133.718 8.11658ZM120.535 16.2846C120.949 17.0025 121.866 17.2493 122.584 16.8359L134.716 9.84977C135.434 9.43638 135.681 8.51927 135.267 7.80136C134.854 7.08345 133.937 6.83659 133.219 7.24999L121.087 14.2362C120.369 14.6495 120.122 15.5667 120.535 16.2846Z" fill="white"/>
<path d="M81.996 86.451H77.997V87.45H77.496V83.9505H77.997V84.951H81.996V86.451Z" fill="white"/>
<path d="M83.496 83.9505H82.9951V84.45H82.4955V82.95H82.9951V81.951H81.996V83.9505H81.4965V84.45H78.996V82.95H81.4965V81.951H78.996V80.451H82.9951V80.9505H83.496V83.9505Z" fill="white"/>
<path d="M81.4965 77.451H79.497V78.45H81.4965V77.451ZM83.496 79.95H78.996V76.4505H79.497V75.951H81.4965V76.4505H81.996V78.45H83.496V79.95Z" fill="white"/>
<path d="M79.9965 72.951H79.497V73.95H79.9965V72.951ZM81.996 74.9505H81.4965V75.45H79.497V74.9505H78.996V71.9505H79.497V71.451H80.496V73.95H81.4965V71.9505H81.996V74.9505Z" fill="white"/>
<path d="M81.4965 68.451H79.9965V69.45H81.4965V68.451ZM79.497 68.451H77.997V69.45H79.497V68.451ZM81.996 70.95H77.496V67.4505H77.997V66.951H79.497V67.4505H79.9965V66.951H81.4965V67.4505H81.996V70.95Z" fill="white"/>
<path d="M81.4965 63.951H79.497V64.95H81.4965V63.951ZM81.996 65.9505H81.4965V66.45H79.497V65.9505H78.996V62.9505H79.497V62.451H81.4965V62.9505H81.996V65.9505Z" fill="white"/>
<path d="M83.496 61.4505H82.9951V61.95H82.4955V60.45H82.9951V59.451H81.996V61.4505H81.4965V61.95H78.996V60.45H81.4965V59.451H78.996V57.951H82.9951V58.4505H83.496V61.4505Z" fill="white"/>
<path d="M44.9155 82.2005C44.9892 82.2811 45.0261 82.3841 45.0261 82.5096C45.0261 82.6648 44.9763 82.7869 44.8766 82.8758C44.7766 82.9646 44.6393 83.0091 44.465 83.0091C44.2766 83.0091 44.1313 82.9585 44.0292 82.8575C43.9404 82.7696 43.8959 82.6578 43.8959 82.522C43.8959 82.3404 43.9555 82.2076 44.0746 82.1236C44.1415 82.0772 44.2087 82.0523 44.2761 82.0489V82.2745C44.2243 82.2891 44.1852 82.3079 44.1589 82.3309C44.112 82.3719 44.0886 82.4327 44.0886 82.5132C44.0886 82.5953 44.1218 82.66 44.1882 82.7073C44.2541 82.7547 44.3476 82.7784 44.4687 82.7784C44.5898 82.7784 44.6806 82.7535 44.7411 82.7037C44.8012 82.6534 44.8312 82.5896 44.8312 82.5125C44.8312 82.4334 44.8054 82.3731 44.7536 82.3316C44.7258 82.3086 44.684 82.2896 44.6284 82.2745V82.0511C44.746 82.0706 44.8417 82.1204 44.9155 82.2005Z" fill="white"/>
<path d="M43.9164 81.8782V81.6526H44.8019V81.118H44.996V81.8782H43.9164Z" fill="white"/>
<path d="M44.7741 80.3291V80.7269L44.996 80.8016V81.0374L43.9164 80.6521V80.3973L44.996 80.0149V80.2596L44.7741 80.3291ZM44.5881 80.3921L44.1633 80.5269L44.5881 80.6661V80.3921Z" fill="white"/>
<path d="M44.9155 79.1155C44.9892 79.1961 45.0261 79.2991 45.0261 79.4246C45.0261 79.5799 44.9763 79.702 44.8766 79.7908C44.7766 79.8797 44.6393 79.9241 44.465 79.9241C44.2766 79.9241 44.1313 79.8736 44.0292 79.7725C43.9404 79.6846 43.8959 79.5728 43.8959 79.4371C43.8959 79.2554 43.9555 79.1226 44.0746 79.0386C44.1415 78.9922 44.2087 78.9673 44.2761 78.9639V79.1895C44.2243 79.2041 44.1852 79.2229 44.1589 79.2459C44.112 79.2869 44.0886 79.3477 44.0886 79.4283C44.0886 79.5103 44.1218 79.575 44.1882 79.6224C44.2541 79.6697 44.3476 79.6934 44.4687 79.6934C44.5898 79.6934 44.6806 79.6685 44.7411 79.6187C44.8012 79.5684 44.8312 79.5047 44.8312 79.4275C44.8312 79.3484 44.8054 79.2881 44.7536 79.2466C44.7258 79.2237 44.684 79.2046 44.6284 79.1895V78.9661C44.746 78.9856 44.8417 79.0354 44.9155 79.1155Z" fill="white"/>
<path d="M44.996 77.8367V78.1268L44.5244 78.46L44.6349 78.5677H44.996V78.7896H43.9164V78.5677H44.361L43.9164 78.1509V77.8594L44.361 78.3018L44.996 77.8367Z" fill="white"/>
<path d="M24.038 51.6853C24.038 51.6144 24.0302 51.5568 24.0146 51.5125C23.9846 51.4285 23.929 51.3865 23.8476 51.3865C23.8001 51.3865 23.7633 51.4073 23.7372 51.449C23.7119 51.4907 23.6894 51.5561 23.6699 51.6453L23.6357 51.7976C23.6018 51.9474 23.565 52.0509 23.5253 52.1082C23.4589 52.2052 23.3551 52.2537 23.2138 52.2537C23.0849 52.2537 22.9778 52.2068 22.8925 52.1131C22.8072 52.0193 22.7646 51.8816 22.7646 51.7C22.7646 51.5483 22.805 51.4191 22.8857 51.3123C22.9658 51.2049 23.0823 51.1486 23.2353 51.1433V51.4324C23.1487 51.4376 23.0872 51.4754 23.0507 51.5457C23.0266 51.5926 23.0146 51.6508 23.0146 51.7205C23.0146 51.798 23.0302 51.8598 23.0615 51.906C23.0927 51.9523 23.1363 51.9754 23.1923 51.9754C23.2438 51.9754 23.2822 51.9526 23.3076 51.907C23.3245 51.8777 23.3443 51.8152 23.3671 51.7195L23.4267 51.4715C23.4527 51.3627 23.4876 51.2807 23.5312 51.2254C23.5989 51.1394 23.6969 51.0965 23.8251 51.0965C23.9566 51.0965 24.066 51.1469 24.1533 51.2478C24.2398 51.3481 24.2831 51.49 24.2831 51.6736C24.2831 51.8611 24.2405 52.0086 24.1552 52.116C24.0693 52.2234 23.9514 52.2771 23.8017 52.2771V51.99C23.8675 51.9809 23.9166 51.963 23.9492 51.9363C24.0084 51.8875 24.038 51.8038 24.038 51.6853Z" fill="white"/>
<path d="M23.7285 50.2625V50.5682H24.246V50.867H22.8066V50.24C22.8066 50.0955 22.8437 49.9803 22.9179 49.8943C22.9921 49.8084 23.107 49.7654 23.2626 49.7654C23.4326 49.7654 23.5527 49.8084 23.623 49.8943C23.6933 49.9803 23.7285 50.103 23.7285 50.2625ZM23.4286 50.1219C23.3941 50.0828 23.3395 50.0633 23.2646 50.0633C23.1897 50.0633 23.1363 50.0831 23.1044 50.1228C23.0725 50.1619 23.0566 50.2169 23.0566 50.2879V50.5682H23.4804V50.2879C23.4804 50.2169 23.4632 50.1616 23.4286 50.1219Z" fill="white"/>
<path d="M22.8066 49.5398V49.2391H23.9872V48.5262H24.246V49.5398H22.8066Z" fill="white"/>
<path d="M22.8066 48.3406V48.0418H24.246V48.3406H22.8066Z" fill="white"/>
<path d="M22.8066 46.7146H23.0615V47.1453H24.246V47.448H23.0615V47.8807H22.8066V46.7146Z" fill="white"/>
<path d="M24.2861 45.3445C24.2861 45.5502 24.2301 45.7075 24.1181 45.8162C23.9807 45.962 23.7828 46.035 23.5244 46.035C23.2607 46.035 23.0628 45.962 22.9306 45.8162C22.8186 45.7075 22.7626 45.5502 22.7626 45.3445C22.7626 45.1388 22.8186 44.9816 22.9306 44.8728C23.0628 44.7277 23.2607 44.6551 23.5244 44.6551C23.7828 44.6551 23.9807 44.7277 24.1181 44.8728C24.2301 44.9816 24.2861 45.1388 24.2861 45.3445ZM23.8994 45.0603C23.8115 44.9907 23.6865 44.9558 23.5244 44.9558C23.3629 44.9558 23.2382 44.991 23.1503 45.0613C23.0618 45.131 23.0175 45.2254 23.0175 45.3445C23.0175 45.4637 23.0615 45.5587 23.1494 45.6297C23.2372 45.7006 23.3622 45.7361 23.5244 45.7361C23.6865 45.7361 23.8115 45.7006 23.8994 45.6297C23.9872 45.5587 24.0312 45.4637 24.0312 45.3445C24.0312 45.2254 23.9872 45.1307 23.8994 45.0603Z" fill="white"/>
<path d="M23.6816 43.8133V44.1238H24.246V44.4178H22.8066V43.7117C22.8085 43.6108 22.8209 43.5333 22.8437 43.4793C22.8665 43.4246 22.9 43.3784 22.9443 43.3406C22.9807 43.3094 23.0211 43.2846 23.0654 43.2664C23.1096 43.2482 23.1601 43.2391 23.2167 43.2391C23.2851 43.2391 23.3525 43.2563 23.4189 43.2908C23.4846 43.3253 23.5312 43.3823 23.5585 43.4617C23.5852 43.3953 23.6233 43.3484 23.6728 43.3211C23.7216 43.2931 23.7965 43.2791 23.8974 43.2791H23.9941C24.0598 43.2791 24.1044 43.2765 24.1279 43.2713C24.165 43.2635 24.1923 43.2452 24.2099 43.2166H24.246V43.5476C24.2141 43.5568 24.1884 43.5633 24.1689 43.5672C24.1285 43.575 24.0872 43.5792 24.0449 43.5799L23.9111 43.5818C23.8193 43.5831 23.7581 43.6001 23.7275 43.6326C23.6969 43.6645 23.6816 43.7247 23.6816 43.8133ZM23.4199 43.6307C23.3925 43.5708 23.3385 43.5408 23.2578 43.5408C23.1705 43.5408 23.1119 43.5698 23.082 43.6277C23.065 43.6603 23.0566 43.7091 23.0566 43.7742V44.1238H23.4433V43.783C23.4433 43.7153 23.4355 43.6645 23.4199 43.6307Z" fill="white"/>
<path d="M22.8066 41.9334H23.0615V42.3641H24.246V42.6668H23.0615V43.0994H22.8066V41.9334Z" fill="white"/>
<path d="M24.246 40.8982H23.6035V41.4607H24.246V41.7586H22.8066V41.4607H23.3554V40.8982H22.8066V40.5994H24.246V40.8982Z" fill="white"/>
<path d="M24.2861 39.6746C24.2861 39.8803 24.2301 40.0376 24.1181 40.1463C23.9807 40.2921 23.7828 40.365 23.5244 40.365C23.2607 40.365 23.0628 40.2921 22.9306 40.1463C22.8186 40.0376 22.7626 39.8803 22.7626 39.6746C22.7626 39.4689 22.8186 39.3116 22.9306 39.2029C23.0628 39.0577 23.2607 38.9851 23.5244 38.9851C23.7828 38.9851 23.9807 39.0577 24.1181 39.2029C24.2301 39.3116 24.2861 39.4689 24.2861 39.6746ZM23.8994 39.3904C23.8115 39.3208 23.6865 39.2859 23.5244 39.2859C23.3629 39.2859 23.2382 39.3211 23.1503 39.3914C23.0618 39.4611 23.0175 39.5555 23.0175 39.6746C23.0175 39.7937 23.0615 39.8888 23.1494 39.9598C23.2372 40.0307 23.3622 40.0662 23.5244 40.0662C23.6865 40.0662 23.8115 40.0307 23.8994 39.9598C23.9872 39.8888 24.0312 39.7937 24.0312 39.6746C24.0312 39.5555 23.9872 39.4607 23.8994 39.3904Z" fill="white"/>
<path d="M22.8066 36.7976V36.492L24.246 36.8973V37.1844L23.4042 37.3582L23.1259 37.409L23.4042 37.4598L24.246 37.6336V37.9129L22.8066 38.3211V38.0017L23.6308 37.8113L23.8603 37.7703L23.6357 37.7283L22.8066 37.5662V37.2488L23.6308 37.0779L23.8603 37.034L23.6396 36.99L22.8066 36.7976Z" fill="white"/>
<path d="M22.8066 36.3328V36.034H24.246V36.3328H22.8066Z" fill="white"/>
<path d="M22.8066 34.7068H23.0615V35.1375H24.246V35.4402H23.0615V35.8728H22.8066V34.7068Z" fill="white"/>
<path d="M24.246 33.6717H23.6035V34.2342H24.246V34.532H22.8066V34.2342H23.3554V33.6717H22.8066V33.3728H24.246V33.6717Z" fill="white"/>
<path d="M23.5429 32.1473C23.5429 32.1811 23.5471 32.2104 23.5556 32.2351C23.5712 32.2788 23.6002 32.3116 23.6425 32.3338L23.6308 32.5838L22.8486 32.4842V31.7039H23.0849V32.283L23.3945 32.3338C23.3665 32.2908 23.3479 32.2573 23.3388 32.2332C23.3238 32.1928 23.3163 32.1437 23.3163 32.0857C23.3163 31.9685 23.3557 31.8663 23.4345 31.7791C23.5133 31.6919 23.6279 31.6482 23.7783 31.6482C23.9091 31.6482 24.026 31.6902 24.1288 31.7742C24.2317 31.8582 24.2831 31.9838 24.2831 32.1512C24.2831 32.2859 24.247 32.3966 24.1747 32.4832C24.1025 32.5698 23.9999 32.618 23.8671 32.6277V32.3504C23.9277 32.3393 23.9745 32.3182 24.0078 32.2869C24.0403 32.2557 24.0566 32.2101 24.0566 32.1502C24.0566 32.0812 24.0325 32.0288 23.9843 31.993C23.9355 31.9565 23.8743 31.9383 23.8007 31.9383C23.7285 31.9383 23.6676 31.9552 23.6181 31.9891C23.568 32.0229 23.5429 32.0756 23.5429 32.1473Z" fill="white"/>
<path d="M24.1572 31.3924C24.0738 31.4738 23.9726 31.5144 23.8535 31.5144C23.774 31.5144 23.7021 31.4965 23.6376 31.4607C23.5732 31.4243 23.5247 31.3712 23.4921 31.3016C23.4466 31.3699 23.3974 31.4145 23.3447 31.4353C23.2913 31.4555 23.2415 31.4656 23.1953 31.4656C23.0924 31.4656 23.0048 31.4269 22.9326 31.3494C22.8596 31.2719 22.8232 31.1626 22.8232 31.0213C22.8232 30.88 22.8596 30.7706 22.9326 30.6932C23.0048 30.6157 23.0924 30.5769 23.1953 30.5769C23.2415 30.5769 23.2913 30.5874 23.3447 30.6082C23.3974 30.6284 23.4433 30.6726 23.4824 30.741C23.5214 30.6713 23.5732 30.6189 23.6376 30.5838C23.7021 30.5486 23.774 30.531 23.8535 30.531C23.9726 30.531 24.0742 30.5753 24.1581 30.6639C24.2415 30.7517 24.2831 30.8748 24.2831 31.033C24.2831 31.1912 24.2411 31.311 24.1572 31.3924ZM23.8349 31.2254C23.9046 31.2254 23.9586 31.2075 23.997 31.1717C24.0354 31.1352 24.0546 31.0851 24.0546 31.0213C24.0546 30.9575 24.0354 30.9077 23.997 30.8719C23.9586 30.8354 23.9046 30.8172 23.8349 30.8172C23.7626 30.8172 23.7079 30.8357 23.6708 30.8728C23.6331 30.9093 23.6142 30.9588 23.6142 31.0213C23.6142 31.0838 23.6331 31.1336 23.6708 31.1707C23.7079 31.2072 23.7626 31.2254 23.8349 31.2254ZM23.3525 31.1521C23.385 31.1209 23.4013 31.0773 23.4013 31.0213C23.4013 30.9646 23.385 30.921 23.3525 30.8904C23.3199 30.8592 23.2779 30.8435 23.2265 30.8435C23.1705 30.8435 23.1269 30.8592 23.0956 30.8904C23.0637 30.921 23.0478 30.9646 23.0478 31.0213C23.0478 31.0773 23.0637 31.1212 23.0956 31.1531C23.1269 31.1844 23.1705 31.2 23.2265 31.2C23.2779 31.2 23.3199 31.184 23.3525 31.1521Z" fill="white"/>
<path d="M24.246 28.4695V28.8562L23.6171 29.3006L23.7646 29.4441H24.246V29.74H22.8066V29.4441H23.3994L22.8066 28.8885V28.4998L23.3994 29.0896L24.246 28.4695Z" fill="white"/>
<path d="M23.6171 27.2976V27.9969H23.9872V27.2H24.246V28.2908H22.8066V27.2351H23.0615V27.9969H23.3671V27.2976H23.6171Z" fill="white"/>
<path d="M22.8066 25.8035L23.705 26.285H24.246V26.5857H23.705L22.8066 27.0838V26.7293L23.4335 26.4305L22.8066 26.1443V25.8035Z" fill="white"/>
<path d="M24.038 25.1092C24.038 25.0382 24.0302 24.9806 24.0146 24.9363C23.9846 24.8523 23.929 24.8103 23.8476 24.8103C23.8001 24.8103 23.7633 24.8312 23.7372 24.8728C23.7119 24.9145 23.6894 24.9799 23.6699 25.0691L23.6357 25.2215C23.6018 25.3712 23.565 25.4747 23.5253 25.532C23.4589 25.629 23.3551 25.6775 23.2138 25.6775C23.0849 25.6775 22.9778 25.6307 22.8925 25.5369C22.8072 25.4432 22.7646 25.3055 22.7646 25.1238C22.7646 24.9721 22.805 24.8429 22.8857 24.7361C22.9658 24.6287 23.0823 24.5724 23.2353 24.5672V24.8562C23.1487 24.8614 23.0872 24.8992 23.0507 24.9695C23.0266 25.0164 23.0146 25.0747 23.0146 25.1443C23.0146 25.2218 23.0302 25.2836 23.0615 25.3299C23.0927 25.3761 23.1363 25.3992 23.1923 25.3992C23.2438 25.3992 23.2822 25.3764 23.3076 25.3308C23.3245 25.3016 23.3443 25.2391 23.3671 25.1433L23.4267 24.8953C23.4527 24.7866 23.4876 24.7045 23.5312 24.6492C23.5989 24.5633 23.6969 24.5203 23.8251 24.5203C23.9566 24.5203 24.066 24.5708 24.1533 24.6717C24.2398 24.7719 24.2831 24.9139 24.2831 25.0975C24.2831 25.285 24.2405 25.4324 24.1552 25.5398C24.0693 25.6473 23.9514 25.701 23.8017 25.701V25.4139C23.8675 25.4047 23.9166 25.3868 23.9492 25.3601C24.0084 25.3113 24.038 25.2277 24.038 25.1092Z" fill="white"/>
<path d="M81.996 56.0223V56.3025H80.5566V55.865L81.6884 55.6033L80.5566 55.3435V54.9109H81.996V55.1912H81.0224C80.9944 55.1912 80.9553 55.1909 80.9052 55.1902C80.8544 55.1896 80.8154 55.1892 80.788 55.1892L81.996 55.4617V55.7537L80.788 56.0242C80.8154 56.0242 80.8544 56.0239 80.9052 56.0232C80.9553 56.0226 80.9944 56.0223 81.0224 56.0223H81.996Z" fill="white"/>
<path d="M81.996 53.3562V53.743L81.3671 54.1873L81.5146 54.3308H81.996V54.6267H80.5566V54.3308H81.1494L80.5566 53.7752V53.3865L81.1494 53.9764L81.996 53.3562Z" fill="white"/>
<path d="M81.705 53.2137V52.9178H81.996V53.2137H81.705Z" fill="white"/>
<path d="M80.5566 52.0965V51.7976H81.996V52.0965H80.5566Z" fill="white"/>
<path d="M80.5566 51.5398V51.241H81.996V51.5398H80.5566Z" fill="white"/>
<path d="M55.996 34.8875H54.121V34.2625H54.3298V34.0544H54.5379V33.8462H54.121V33.2212H55.996V33.8462H54.9548V34.0544H54.746V34.2625H55.996V34.8875Z" fill="white"/>
<path d="M55.1629 31.9712H54.9548V32.3875H55.1629V31.9712ZM55.996 32.8044H55.7879V33.0125H54.9548V32.8044H54.746V31.5544H54.9548V31.3462H55.371V32.3875H55.7879V31.5544H55.996V32.8044Z" fill="white"/>
<path d="M55.996 31.1375H55.7879V30.9294H55.5798V30.7212H55.1629V30.9294H54.9548V31.1375H54.746V30.5125H55.1629V30.0962H54.746V29.4712H54.9548V29.6794H55.1629V29.8875H55.5798V29.6794H55.7879V29.4712H55.996V30.0962H55.5798V30.5125H55.996V31.1375Z" fill="white"/>
<path d="M55.996 29.0544H55.7879V29.2625H54.121V28.6375H54.746V28.2212H54.9548V28.6375H55.7879V28.2212H55.996V29.0544Z" fill="white"/>
<path d="M31.996 35.7206H31.7879V35.9288H31.371V35.3038H31.7879V34.8875H31.1629V35.7206H30.9548V35.9288H30.3298V35.7206H30.121V34.4706H30.3298V34.2625H30.746V34.8875H30.3298V35.3038H30.9548V34.4706H31.1629V34.2625H31.7879V34.4706H31.996V35.7206Z" fill="white"/>
<path d="M31.996 33.8456H31.7879V34.0538H30.9548V33.8456H30.746V32.8038H30.9548V33.4288H31.7879V32.8038H31.996V33.8456Z" fill="white"/>
<path d="M31.7879 31.555H30.9548V31.9712H31.7879V31.555ZM31.996 32.3881H31.7879V32.5962H30.9548V32.3881H30.746V31.1381H30.9548V30.93H31.7879V31.1381H31.996V32.3881Z" fill="white"/>
<path d="M31.996 30.7212H30.9548V30.5131H30.746V29.2631H30.9548V29.055H31.371V29.68H30.9548V30.0962H31.996V30.7212Z" fill="white"/>
<path d="M31.1629 27.805H30.9548V28.2212H31.1629V27.805ZM31.996 28.6381H31.7879V28.8462H30.9548V28.6381H30.746V27.3881H30.9548V27.18H31.371V28.2212H31.7879V27.3881H31.996V28.6381Z" fill="white"/>
<path d="M34.996 34.7H34.5798V34.4919H34.371V34.2837H34.1629V34.075H33.9548V33.8669H33.746V33.6587H33.3298V34.075H33.746V34.7H33.3298V34.4919H33.121V33.2419H33.3298V33.0337H33.746V33.2419H33.9548V33.45H34.1629V33.6587H34.371V33.8669H34.5798V34.075H34.7879V33.0337H34.996V34.7Z" fill="white"/>
<path d="M34.7879 31.7837H33.9548V31.9919H33.746V31.7837H33.3298V32.2H33.9548V31.9919H34.1629V32.2H34.7879V31.7837ZM34.996 32.6169H34.7879V32.825H33.3298V32.6169H33.121V31.3669H33.3298V31.1587H34.7879V31.3669H34.996V32.6169Z" fill="white"/>
<path d="M34.996 30.95H34.5798V30.7419H34.371V30.5337H34.1629V30.325H33.9548V30.1169H33.746V29.9087H33.3298V30.325H33.746V30.95H33.3298V30.7419H33.121V29.4919H33.3298V29.2837H33.746V29.4919H33.9548V29.7H34.1629V29.9087H34.371V30.1169H34.5798V30.325H34.7879V29.2837H34.996V30.95Z" fill="white"/>
<path d="M34.996 28.8669H34.7879V29.075H34.371V28.45H34.7879V28.0337H34.1629V28.45H33.9548V28.0337H33.3298V28.45H33.746V29.075H33.3298V28.8669H33.121V27.6169H33.3298V27.4087H33.9548V27.6169H34.1629V27.4087H34.7879V27.6169H34.996V28.8669Z" fill="white"/>
<path d="M39.996 34.9075H38.121V34.2825H39.7879V33.6575H39.996V34.9075Z" fill="white"/>
<path d="M39.1629 32.4087H38.9548V32.825H39.1629V32.4087ZM39.996 33.2419H39.7879V33.45H38.9548V33.2419H38.746V31.9919H38.9548V31.7837H39.371V32.825H39.7879V31.9919H39.996V33.2419Z" fill="white"/>
<path d="M39.996 30.95H39.7879V31.1587H39.5798V31.3669H39.371V31.575H38.746V30.95H39.5798V30.5337H38.746V29.9087H39.371V30.1169H39.5798V30.325H39.7879V30.5337H39.996V30.95Z" fill="white"/>
<path d="M39.1629 28.6587H38.9548V29.075H39.1629V28.6587ZM39.996 29.4919H39.7879V29.7H38.9548V29.4919H38.746V28.2419H38.9548V28.0337H39.371V29.075H39.7879V28.2419H39.996V29.4919Z" fill="white"/>
<path d="M39.996 27.825H38.121V27.2H39.996V27.825Z" fill="white"/>
<path d="M42.996 32.6175H42.7879V32.2012H41.3298V32.6175H41.121V31.5762H42.7879V31.1593H42.996V32.6175Z" fill="white"/>
<path d="M42.996 30.95H42.7879V30.5337H41.3298V30.95H41.121V29.9087H42.7879V29.4919H42.996V30.95Z" fill="white"/>
<path d="M47.996 34.9075H46.121V34.2825H47.7879V33.6575H47.996V34.9075Z" fill="white"/>
<path d="M47.996 33.45H46.746V32.825H47.996V33.45ZM46.3298 33.45H46.121V32.825H46.3298V33.45Z" fill="white"/>
<path d="M47.996 32.6175H46.746V31.1593H46.9548V30.9512H47.996V31.5762H46.9548V31.9925H47.996V32.6175Z" fill="white"/>
<path d="M47.1629 29.7012H46.9548V30.1175H47.1629V29.7012ZM47.996 30.5343H47.7879V30.7425H46.9548V30.5343H46.746V29.2843H46.9548V29.0762H47.371V30.1175H47.7879V29.2843H47.996V30.5343Z" fill="white"/>
<path d="M47.996 28.6593H47.7879V28.8675H47.5798V28.2425H47.7879V27.8262H47.371V28.6593H47.1629V28.8675H46.9548V28.6593H46.746V27.4093H46.9548V28.2425H47.1629V27.4093H47.371V27.2012H47.7879V27.4093H47.996V28.6593Z" fill="white"/>
<path d="M50.996 31.6794H50.7879V31.8875H50.371V31.2625H50.7879V30.8462H50.1629V31.8875H49.121V30.4294H49.3298V31.2625H49.9548V30.4294H50.1629V30.2212H50.7879V30.4294H50.996V31.6794Z" fill="white"/>
<path fill-rule="evenodd" clip-rule="evenodd" d="M28.496 73.45H66.496C66.7722 73.45 66.996 73.2261 66.996 72.95V25.95C66.996 25.6739 66.7722 25.45 66.496 25.45H28.496C28.2199 25.45 27.996 25.6739 27.996 25.95V72.95C27.996 73.2261 28.2199 73.45 28.496 73.45ZM66.496 74.45C67.3245 74.45 67.996 73.7784 67.996 72.95V25.95C67.996 25.1216 67.3245 24.45 66.496 24.45H28.496C27.6676 24.45 26.996 25.1216 26.996 25.95V72.95C26.996 73.7784 27.6676 74.45 28.496 74.45H66.496Z" fill="white"/>
<path fill-rule="evenodd" clip-rule="evenodd" d="M58.996 69.45V71.45H60.996V69.45H58.996ZM57.996 71.45C57.996 72.0023 58.4437 72.45 58.996 72.45H60.996C61.5483 72.45 61.996 72.0023 61.996 71.45V69.45C61.996 68.8977 61.5483 68.45 60.996 68.45H58.996C58.4437 68.45 57.996 68.8977 57.996 69.45V71.45Z" fill="white"/>
<path fill-rule="evenodd" clip-rule="evenodd" d="M58.996 65.45V67.45H60.996V65.45H58.996ZM57.996 67.45C57.996 68.0023 58.4437 68.45 58.996 68.45H60.996C61.5483 68.45 61.996 68.0023 61.996 67.45V65.45C61.996 64.8977 61.5483 64.45 60.996 64.45H58.996C58.4437 64.45 57.996 64.8977 57.996 65.45V67.45Z" fill="white"/>
<path fill-rule="evenodd" clip-rule="evenodd" d="M54.996 65.45V67.45H56.996V65.45H54.996ZM53.996 67.45C53.996 68.0023 54.4437 68.45 54.996 68.45H56.996C57.5483 68.45 57.996 68.0023 57.996 67.45V65.45C57.996 64.8977 57.5483 64.45 56.996 64.45H54.996C54.4437 64.45 53.996 64.8977 53.996 65.45V67.45Z" fill="white"/>
<path fill-rule="evenodd" clip-rule="evenodd" d="M62.996 57.45V59.45H64.996V57.45H62.996ZM61.996 59.45C61.996 60.0023 62.4437 60.45 62.996 60.45H64.996C65.5483 60.45 65.996 60.0023 65.996 59.45V57.45C65.996 56.8977 65.5483 56.45 64.996 56.45H62.996C62.4437 56.45 61.996 56.8977 61.996 57.45V59.45Z" fill="white"/>
<path fill-rule="evenodd" clip-rule="evenodd" d="M62.996 53.45V55.45H64.996V53.45H62.996ZM61.996 55.45C61.996 56.0023 62.4437 56.45 62.996 56.45H64.996C65.5483 56.45 65.996 56.0023 65.996 55.45V53.45C65.996 52.8977 65.5483 52.45 64.996 52.45H62.996C62.4437 52.45 61.996 52.8977 61.996 53.45V55.45Z" fill="white"/>
<path fill-rule="evenodd" clip-rule="evenodd" d="M62.996 49.45V51.45H64.996V49.45H62.996ZM61.996 51.45C61.996 52.0023 62.4437 52.45 62.996 52.45H64.996C65.5483 52.45 65.996 52.0023 65.996 51.45V49.45C65.996 48.8977 65.5483 48.45 64.996 48.45H62.996C62.4437 48.45 61.996 48.8977 61.996 49.45V51.45Z" fill="white"/>
<path fill-rule="evenodd" clip-rule="evenodd" d="M58.996 53.45V55.45H60.996V53.45H58.996ZM57.996 55.45C57.996 56.0023 58.4437 56.45 58.996 56.45H60.996C61.5483 56.45 61.996 56.0023 61.996 55.45V53.45C61.996 52.8977 61.5483 52.45 60.996 52.45H58.996C58.4437 52.45 57.996 52.8977 57.996 53.45V55.45Z" fill="white"/>
<path fill-rule="evenodd" clip-rule="evenodd" d="M62.996 69.45V71.45H64.996V69.45H62.996ZM61.996 71.45C61.996 72.0023 62.4437 72.45 62.996 72.45H64.996C65.5483 72.45 65.996 72.0023 65.996 71.45V69.45C65.996 68.8977 65.5483 68.45 64.996 68.45H62.996C62.4437 68.45 61.996 68.8977 61.996 69.45V71.45Z" fill="white"/>
<path fill-rule="evenodd" clip-rule="evenodd" d="M34.996 51.45V49.45H36.996V51.45H34.996ZM33.996 49.45C33.996 48.8977 34.4437 48.45 34.996 48.45H36.996C37.5483 48.45 37.996 48.8977 37.996 49.45V51.45C37.996 52.0023 37.5483 52.45 36.996 52.45H34.996C34.4437 52.45 33.996 52.0023 33.996 51.45V49.45Z" fill="white"/>
<path fill-rule="evenodd" clip-rule="evenodd" d="M34.996 55.45V53.45H36.996V55.45H34.996ZM33.996 53.45C33.996 52.8977 34.4437 52.45 34.996 52.45H36.996C37.5483 52.45 37.996 52.8977 37.996 53.45V55.45C37.996 56.0023 37.5483 56.45 36.996 56.45H34.996C34.4437 56.45 33.996 56.0023 33.996 55.45V53.45Z" fill="white"/>
<path fill-rule="evenodd" clip-rule="evenodd" d="M30.996 55.45V53.45H32.996V55.45H30.996ZM29.996 53.45C29.996 52.8977 30.4437 52.45 30.996 52.45H32.996C33.5483 52.45 33.996 52.8977 33.996 53.45V55.45C33.996 56.0023 33.5483 56.45 32.996 56.45H30.996C30.4437 56.45 29.996 56.0023 29.996 55.45V53.45Z" fill="white"/>
<path fill-rule="evenodd" clip-rule="evenodd" d="M38.996 51.45V49.45H40.996V51.45H38.996ZM37.996 49.45C37.996 48.8977 38.4437 48.45 38.996 48.45H40.996C41.5483 48.45 41.996 48.8977 41.996 49.45V51.45C41.996 52.0023 41.5483 52.45 40.996 52.45H38.996C38.4437 52.45 37.996 52.0023 37.996 51.45V49.45Z" fill="white"/>
<path fill-rule="evenodd" clip-rule="evenodd" d="M46.996 65.45V67.45H48.996V65.45H46.996ZM45.996 67.45C45.996 68.0023 46.4437 68.45 46.996 68.45H48.996C49.5483 68.45 49.996 68.0023 49.996 67.45V65.45C49.996 64.8977 49.5483 64.45 48.996 64.45H46.996C46.4437 64.45 45.996 64.8977 45.996 65.45V67.45Z" fill="white"/>
<path fill-rule="evenodd" clip-rule="evenodd" d="M50.996 49.45V51.45H52.996V49.45H50.996ZM49.996 51.45C49.996 52.0023 50.4437 52.45 50.996 52.45H52.996C53.5483 52.45 53.996 52.0023 53.996 51.45V49.45C53.996 48.8977 53.5483 48.45 52.996 48.45H50.996C50.4437 48.45 49.996 48.8977 49.996 49.45V51.45Z" fill="white"/>
<path fill-rule="evenodd" clip-rule="evenodd" d="M46.996 61.45V63.45H48.996V61.45H46.996ZM45.996 63.45C45.996 64.0023 46.4437 64.45 46.996 64.45H48.996C49.5483 64.45 49.996 64.0023 49.996 63.45V61.45C49.996 60.8977 49.5483 60.45 48.996 60.45H46.996C46.4437 60.45 45.996 60.8977 45.996 61.45V63.45Z" fill="white"/>
<path fill-rule="evenodd" clip-rule="evenodd" d="M54.996 45.45V47.45H56.996V45.45H54.996ZM53.996 47.45C53.996 48.0023 54.4437 48.45 54.996 48.45H56.996C57.5483 48.45 57.996 48.0023 57.996 47.45V45.45C57.996 44.8977 57.5483 44.45 56.996 44.45H54.996C54.4437 44.45 53.996 44.8977 53.996 45.45V47.45Z" fill="white"/>
<path fill-rule="evenodd" clip-rule="evenodd" d="M42.996 65.45V67.45H44.996V65.45H42.996ZM41.996 67.45C41.996 68.0023 42.4437 68.45 42.996 68.45H44.996C45.5483 68.45 45.996 68.0023 45.996 67.45V65.45C45.996 64.8977 45.5483 64.45 44.996 64.45H42.996C42.4437 64.45 41.996 64.8977 41.996 65.45V67.45Z" fill="white"/>
<path fill-rule="evenodd" clip-rule="evenodd" d="M50.996 45.45V47.45H52.996V45.45H50.996ZM49.996 47.45C49.996 48.0023 50.4437 48.45 50.996 48.45H52.996C53.5483 48.45 53.996 48.0023 53.996 47.45V45.45C53.996 44.8977 53.5483 44.45 52.996 44.45H50.996C50.4437 44.45 49.996 44.8977 49.996 45.45V47.45Z" fill="white"/>
<path fill-rule="evenodd" clip-rule="evenodd" d="M50.996 61.45V63.45H52.996V61.45H50.996ZM49.996 63.45C49.996 64.0023 50.4437 64.45 50.996 64.45H52.996C53.5483 64.45 53.996 64.0023 53.996 63.45V61.45C53.996 60.8977 53.5483 60.45 52.996 60.45H50.996C50.4437 60.45 49.996 60.8977 49.996 61.45V63.45Z" fill="white"/>
<path fill-rule="evenodd" clip-rule="evenodd" d="M54.996 41.45V43.45H56.996V41.45H54.996ZM53.996 43.45C53.996 44.0023 54.4437 44.45 54.996 44.45H56.996C57.5483 44.45 57.996 44.0023 57.996 43.45V41.45C57.996 40.8977 57.5483 40.45 56.996 40.45H54.996C54.4437 40.45 53.996 40.8977 53.996 41.45V43.45Z" fill="white"/>
<path fill-rule="evenodd" clip-rule="evenodd" d="M62.996 65.45V67.45H64.996V65.45H62.996ZM61.996 67.45C61.996 68.0023 62.4437 68.45 62.996 68.45H64.996C65.5483 68.45 65.996 68.0023 65.996 67.45V65.45C65.996 64.8977 65.5483 64.45 64.996 64.45H62.996C62.4437 64.45 61.996 64.8977 61.996 65.45V67.45Z" fill="white"/>
<path d="M63.496 67.45C63.2199 67.45 62.996 67.2261 62.996 66.95C62.996 66.6739 63.2199 66.45 63.496 66.45C63.7722 66.45 63.996 66.6739 63.996 66.95C63.996 67.2261 63.7722 67.45 63.496 67.45Z" fill="white"/>
<path d="M64.496 66.45C64.2199 66.45 63.996 66.2261 63.996 65.95C63.996 65.6739 64.2199 65.45 64.496 65.45C64.7722 65.45 64.996 65.6739 64.996 65.95C64.996 66.2261 64.7722 66.45 64.496 66.45Z" fill="white"/>
<path fill-rule="evenodd" clip-rule="evenodd" d="M60.996 32.45V34.45H58.996V32.45H60.996ZM61.996 34.45C61.996 35.0023 61.5483 35.45 60.996 35.45H58.996C58.4437 35.45 57.996 35.0023 57.996 34.45V32.45C57.996 31.8977 58.4437 31.45 58.996 31.45H60.996C61.5483 31.45 61.996 31.8977 61.996 32.45V34.45Z" fill="white"/>
<path d="M60.496 34.45C60.7722 34.45 60.996 34.2261 60.996 33.95C60.996 33.6739 60.7722 33.45 60.496 33.45C60.2199 33.45 59.996 33.6739 59.996 33.95C59.996 34.2261 60.2199 34.45 60.496 34.45Z" fill="white"/>
<path d="M59.496 33.45C59.7722 33.45 59.996 33.2261 59.996 32.95C59.996 32.6739 59.7722 32.45 59.496 32.45C59.2199 32.45 58.996 32.6739 58.996 32.95C58.996 33.2261 59.2199 33.45 59.496 33.45Z" fill="white"/>
<path fill-rule="evenodd" clip-rule="evenodd" d="M56.996 69.45V71.45H54.996V69.45H56.996ZM57.996 71.45C57.996 72.0023 57.5483 72.45 56.996 72.45H54.996C54.4437 72.45 53.996 72.0023 53.996 71.45V69.45C53.996 68.8977 54.4437 68.45 54.996 68.45H56.996C57.5483 68.45 57.996 68.8977 57.996 69.45V71.45Z" fill="white"/>
<path fill-rule="evenodd" clip-rule="evenodd" d="M52.996 69.45V71.45H50.996V69.45H52.996ZM53.996 71.45C53.996 72.0023 53.5483 72.45 52.996 72.45H50.996C50.4437 72.45 49.996 72.0023 49.996 71.45V69.45C49.996 68.8977 50.4437 68.45 50.996 68.45H52.996C53.5483 68.45 53.996 68.8977 53.996 69.45V71.45Z" fill="white"/>
<path fill-rule="evenodd" clip-rule="evenodd" d="M48.996 69.45V71.45H46.996V69.45H48.996ZM49.996 71.45C49.996 72.0023 49.5483 72.45 48.996 72.45H46.996C46.4437 72.45 45.996 72.0023 45.996 71.45V69.45C45.996 68.8977 46.4437 68.45 46.996 68.45H48.996C49.5483 68.45 49.996 68.8977 49.996 69.45V71.45Z" fill="white"/>
<path fill-rule="evenodd" clip-rule="evenodd" d="M52.996 65.45V67.45H50.996V65.45H52.996ZM53.996 67.45C53.996 68.0023 53.5483 68.45 52.996 68.45H50.996C50.4437 68.45 49.996 68.0023 49.996 67.45V65.45C49.996 64.8977 50.4437 64.45 50.996 64.45H52.996C53.5483 64.45 53.996 64.8977 53.996 65.45V67.45Z" fill="white"/>
<path fill-rule="evenodd" clip-rule="evenodd" d="M62.996 61.45V63.45H64.996V61.45H62.996ZM61.996 63.45C61.996 64.0023 62.4437 64.45 62.996 64.45H64.996C65.5483 64.45 65.996 64.0023 65.996 63.45V61.45C65.996 60.8977 65.5483 60.45 64.996 60.45H62.996C62.4437 60.45 61.996 60.8977 61.996 61.45V63.45Z" fill="white"/>
<path d="M63.496 63.45C63.2199 63.45 62.996 63.2261 62.996 62.95C62.996 62.6739 63.2199 62.45 63.496 62.45C63.7722 62.45 63.996 62.6739 63.996 62.95C63.996 63.2261 63.7722 63.45 63.496 63.45Z" fill="white"/>
<path d="M64.496 62.45C64.2199 62.45 63.996 62.2261 63.996 61.95C63.996 61.6739 64.2199 61.45 64.496 61.45C64.7722 61.45 64.996 61.6739 64.996 61.95C64.996 62.2261 64.7722 62.45 64.496 62.45Z" fill="white"/>
<path fill-rule="evenodd" clip-rule="evenodd" d="M60.996 28.45V30.45H58.996V28.45H60.996ZM61.996 30.45C61.996 31.0023 61.5483 31.45 60.996 31.45H58.996C58.4437 31.45 57.996 31.0023 57.996 30.45V28.45C57.996 27.8977 58.4437 27.45 58.996 27.45H60.996C61.5483 27.45 61.996 27.8977 61.996 28.45V30.45Z" fill="white"/>
<path d="M60.496 30.45C60.7722 30.45 60.996 30.2261 60.996 29.95C60.996 29.6739 60.7722 29.45 60.496 29.45C60.2199 29.45 59.996 29.6739 59.996 29.95C59.996 30.2261 60.2199 30.45 60.496 30.45Z" fill="white"/>
<path d="M59.496 29.45C59.7722 29.45 59.996 29.2261 59.996 28.95C59.996 28.6739 59.7722 28.45 59.496 28.45C59.2199 28.45 58.996 28.6739 58.996 28.95C58.996 29.2261 59.2199 29.45 59.496 29.45Z" fill="white"/>
<path fill-rule="evenodd" clip-rule="evenodd" d="M58.996 61.45V63.45H60.996V61.45H58.996ZM57.996 63.45C57.996 64.0023 58.4437 64.45 58.996 64.45H60.996C61.5483 64.45 61.996 64.0023 61.996 63.45V61.45C61.996 60.8977 61.5483 60.45 60.996 60.45H58.996C58.4437 60.45 57.996 60.8977 57.996 61.45V63.45Z" fill="white"/>
<path d="M59.496 63.45C59.2199 63.45 58.996 63.2261 58.996 62.95C58.996 62.6739 59.2199 62.45 59.496 62.45C59.7722 62.45 59.996 62.6739 59.996 62.95C59.996 63.2261 59.7722 63.45 59.496 63.45Z" fill="white"/>
<path d="M60.496 62.45C60.2199 62.45 59.996 62.2261 59.996 61.95C59.996 61.6739 60.2199 61.45 60.496 61.45C60.7722 61.45 60.996 61.6739 60.996 61.95C60.996 62.2261 60.7722 62.45 60.496 62.45Z" fill="white"/>
<path fill-rule="evenodd" clip-rule="evenodd" d="M64.996 32.45V34.45H62.996V32.45H64.996ZM65.996 34.45C65.996 35.0023 65.5483 35.45 64.996 35.45H62.996C62.4437 35.45 61.996 35.0023 61.996 34.45V32.45C61.996 31.8977 62.4437 31.45 62.996 31.45H64.996C65.5483 31.45 65.996 31.8977 65.996 32.45V34.45Z" fill="white"/>
<path d="M64.496 34.45C64.7722 34.45 64.996 34.2261 64.996 33.95C64.996 33.6739 64.7722 33.45 64.496 33.45C64.2199 33.45 63.996 33.6739 63.996 33.95C63.996 34.2261 64.2199 34.45 64.496 34.45Z" fill="white"/>
<path d="M63.496 33.45C63.7722 33.45 63.996 33.2261 63.996 32.95C63.996 32.6739 63.7722 32.45 63.496 32.45C63.2199 32.45 62.996 32.6739 62.996 32.95C62.996 33.2261 63.2199 33.45 63.496 33.45Z" fill="white"/>
<path fill-rule="evenodd" clip-rule="evenodd" d="M64.996 28.45V30.45H62.996V28.45H64.996ZM65.996 30.45C65.996 31.0023 65.5483 31.45 64.996 31.45H62.996C62.4437 31.45 61.996 31.0023 61.996 30.45V28.45C61.996 27.8977 62.4437 27.45 62.996 27.45H64.996C65.5483 27.45 65.996 27.8977 65.996 28.45V30.45Z" fill="white"/>
<path d="M64.496 30.45C64.7722 30.45 64.996 30.2261 64.996 29.95C64.996 29.6739 64.7722 29.45 64.496 29.45C64.2199 29.45 63.996 29.6739 63.996 29.95C63.996 30.2261 64.2199 30.45 64.496 30.45Z" fill="white"/>
<path d="M63.496 29.45C63.7722 29.45 63.996 29.2261 63.996 28.95C63.996 28.6739 63.7722 28.45 63.496 28.45C63.2199 28.45 62.996 28.6739 62.996 28.95C62.996 29.2261 63.2199 29.45 63.496 29.45Z" fill="white"/>
<path fill-rule="evenodd" clip-rule="evenodd" d="M54.996 61.45V63.45H56.996V61.45H54.996ZM53.996 63.45C53.996 64.0023 54.4437 64.45 54.996 64.45H56.996C57.5483 64.45 57.996 64.0023 57.996 63.45V61.45C57.996 60.8977 57.5483 60.45 56.996 60.45H54.996C54.4437 60.45 53.996 60.8977 53.996 61.45V63.45Z" fill="white"/>
<path d="M55.496 63.45C55.2199 63.45 54.996 63.2261 54.996 62.95C54.996 62.6739 55.2199 62.45 55.496 62.45C55.7722 62.45 55.996 62.6739 55.996 62.95C55.996 63.2261 55.7722 63.45 55.496 63.45Z" fill="white"/>
<path d="M56.496 62.45C56.2199 62.45 55.996 62.2261 55.996 61.95C55.996 61.6739 56.2199 61.45 56.496 61.45C56.7722 61.45 56.996 61.6739 56.996 61.95C56.996 62.2261 56.7722 62.45 56.496 62.45Z" fill="white"/>
<path fill-rule="evenodd" clip-rule="evenodd" d="M64.996 43.45V41.45H62.996V43.45H64.996ZM65.996 41.45C65.996 40.8977 65.5483 40.45 64.996 40.45H62.996C62.4437 40.45 61.996 40.8977 61.996 41.45V43.45C61.996 44.0023 62.4437 44.45 62.996 44.45H64.996C65.5483 44.45 65.996 44.0023 65.996 43.45V41.45Z" fill="white"/>
<path d="M64.496 41.45C64.7722 41.45 64.996 41.6739 64.996 41.95C64.996 42.2261 64.7722 42.45 64.496 42.45C64.2199 42.45 63.996 42.2261 63.996 41.95C63.996 41.6739 64.2199 41.45 64.496 41.45Z" fill="white"/>
<path d="M63.496 42.45C63.7722 42.45 63.996 42.6739 63.996 42.95C63.996 43.2261 63.7722 43.45 63.496 43.45C63.2199 43.45 62.996 43.2261 62.996 42.95C62.996 42.6739 63.2199 42.45 63.496 42.45Z" fill="white"/>
<path fill-rule="evenodd" clip-rule="evenodd" d="M54.996 55.45V53.45H56.996V55.45H54.996ZM53.996 53.45C53.996 52.8977 54.4437 52.45 54.996 52.45H56.996C57.5483 52.45 57.996 52.8977 57.996 53.45V55.45C57.996 56.0023 57.5483 56.45 56.996 56.45H54.996C54.4437 56.45 53.996 56.0023 53.996 55.45V53.45Z" fill="white"/>
<path d="M55.496 53.45C55.2199 53.45 54.996 53.6739 54.996 53.95C54.996 54.2261 55.2199 54.45 55.496 54.45C55.7722 54.45 55.996 54.2261 55.996 53.95C55.996 53.6739 55.7722 53.45 55.496 53.45Z" fill="white"/>
<path d="M56.496 54.45C56.2199 54.45 55.996 54.6739 55.996 54.95C55.996 55.2261 56.2199 55.45 56.496 55.45C56.7722 55.45 56.996 55.2261 56.996 54.95C56.996 54.6739 56.7722 54.45 56.496 54.45Z" fill="white"/>
<path fill-rule="evenodd" clip-rule="evenodd" d="M60.996 43.45V41.45H58.996V43.45H60.996ZM61.996 41.45C61.996 40.8977 61.5483 40.45 60.996 40.45H58.996C58.4437 40.45 57.996 40.8977 57.996 41.45V43.45C57.996 44.0023 58.4437 44.45 58.996 44.45H60.996C61.5483 44.45 61.996 44.0023 61.996 43.45V41.45Z" fill="white"/>
<path d="M60.496 41.45C60.7722 41.45 60.996 41.6739 60.996 41.95C60.996 42.2261 60.7722 42.45 60.496 42.45C60.2199 42.45 59.996 42.2261 59.996 41.95C59.996 41.6739 60.2199 41.45 60.496 41.45Z" fill="white"/>
<path d="M59.496 42.45C59.7722 42.45 59.996 42.6739 59.996 42.95C59.996 43.2261 59.7722 43.45 59.496 43.45C59.2199 43.45 58.996 43.2261 58.996 42.95C58.996 42.6739 59.2199 42.45 59.496 42.45Z" fill="white"/>
<path fill-rule="evenodd" clip-rule="evenodd" d="M50.996 55.45V53.45H52.996V55.45H50.996ZM49.996 53.45C49.996 52.8977 50.4437 52.45 50.996 52.45H52.996C53.5483 52.45 53.996 52.8977 53.996 53.45V55.45C53.996 56.0023 53.5483 56.45 52.996 56.45H50.996C50.4437 56.45 49.996 56.0023 49.996 55.45V53.45Z" fill="white"/>
<path d="M51.496 53.45C51.2199 53.45 50.996 53.6739 50.996 53.95C50.996 54.2261 51.2199 54.45 51.496 54.45C51.7722 54.45 51.996 54.2261 51.996 53.95C51.996 53.6739 51.7722 53.45 51.496 53.45Z" fill="white"/>
<path d="M52.496 54.45C52.2199 54.45 51.996 54.6739 51.996 54.95C51.996 55.2261 52.2199 55.45 52.496 55.45C52.7722 55.45 52.996 55.2261 52.996 54.95C52.996 54.6739 52.7722 54.45 52.496 54.45Z" fill="white"/>
<path fill-rule="evenodd" clip-rule="evenodd" d="M60.996 51.45V49.45H58.996V51.45H60.996ZM61.996 49.45C61.996 48.8977 61.5483 48.45 60.996 48.45H58.996C58.4437 48.45 57.996 48.8977 57.996 49.45V51.45C57.996 52.0023 58.4437 52.45 58.996 52.45H60.996C61.5483 52.45 61.996 52.0023 61.996 51.45V49.45Z" fill="white"/>
<path d="M60.496 49.45C60.7722 49.45 60.996 49.6739 60.996 49.95C60.996 50.2261 60.7722 50.45 60.496 50.45C60.2199 50.45 59.996 50.2261 59.996 49.95C59.996 49.6739 60.2199 49.45 60.496 49.45Z" fill="white"/>
<path d="M59.496 50.45C59.7722 50.45 59.996 50.6739 59.996 50.95C59.996 51.2261 59.7722 51.45 59.496 51.45C59.2199 51.45 58.996 51.2261 58.996 50.95C58.996 50.6739 59.2199 50.45 59.496 50.45Z" fill="white"/>
<path fill-rule="evenodd" clip-rule="evenodd" d="M50.996 59.45V57.45H52.996V59.45H50.996ZM49.996 57.45C49.996 56.8977 50.4437 56.45 50.996 56.45H52.996C53.5483 56.45 53.996 56.8977 53.996 57.45V59.45C53.996 60.0023 53.5483 60.45 52.996 60.45H50.996C50.4437 60.45 49.996 60.0023 49.996 59.45V57.45Z" fill="white"/>
<path d="M51.496 57.45C51.2199 57.45 50.996 57.6739 50.996 57.95C50.996 58.2261 51.2199 58.45 51.496 58.45C51.7722 58.45 51.996 58.2261 51.996 57.95C51.996 57.6739 51.7722 57.45 51.496 57.45Z" fill="white"/>
<path d="M52.496 58.45C52.2199 58.45 51.996 58.6739 51.996 58.95C51.996 59.2261 52.2199 59.45 52.496 59.45C52.7722 59.45 52.996 59.2261 52.996 58.95C52.996 58.6739 52.7722 58.45 52.496 58.45Z" fill="white"/>
<path fill-rule="evenodd" clip-rule="evenodd" d="M60.996 47.45V45.45H58.996V47.45H60.996ZM61.996 45.45C61.996 44.8977 61.5483 44.45 60.996 44.45H58.996C58.4437 44.45 57.996 44.8977 57.996 45.45V47.45C57.996 48.0023 58.4437 48.45 58.996 48.45H60.996C61.5483 48.45 61.996 48.0023 61.996 47.45V45.45Z" fill="white"/>
<path d="M60.496 45.45C60.7722 45.45 60.996 45.6739 60.996 45.95C60.996 46.2261 60.7722 46.45 60.496 46.45C60.2199 46.45 59.996 46.2261 59.996 45.95C59.996 45.6739 60.2199 45.45 60.496 45.45Z" fill="white"/>
<path d="M59.496 46.45C59.7722 46.45 59.996 46.6739 59.996 46.95C59.996 47.2261 59.7722 47.45 59.496 47.45C59.2199 47.45 58.996 47.2261 58.996 46.95C58.996 46.6739 59.2199 46.45 59.496 46.45Z" fill="white"/>
<path fill-rule="evenodd" clip-rule="evenodd" d="M54.996 59.45V57.45H56.996V59.45H54.996ZM53.996 57.45C53.996 56.8977 54.4437 56.45 54.996 56.45H56.996C57.5483 56.45 57.996 56.8977 57.996 57.45V59.45C57.996 60.0023 57.5483 60.45 56.996 60.45H54.996C54.4437 60.45 53.996 60.0023 53.996 59.45V57.45Z" fill="white"/>
<path d="M55.496 57.45C55.2199 57.45 54.996 57.6739 54.996 57.95C54.996 58.2261 55.2199 58.45 55.496 58.45C55.7722 58.45 55.996 58.2261 55.996 57.95C55.996 57.6739 55.7722 57.45 55.496 57.45Z" fill="white"/>
<path d="M56.496 58.45C56.2199 58.45 55.996 58.6739 55.996 58.95C55.996 59.2261 56.2199 59.45 56.496 59.45C56.7722 59.45 56.996 59.2261 56.996 58.95C56.996 58.6739 56.7722 58.45 56.496 58.45Z" fill="white"/>
<path d="M29.496 38.45C29.2199 38.45 28.996 38.2261 28.996 37.95C28.996 37.6739 29.2199 37.45 29.496 37.45H65.496C65.7722 37.45 65.996 37.6739 65.996 37.95C65.996 38.2261 65.7722 38.45 65.496 38.45H29.496Z" fill="white"/>
</g>
<defs>
<clipPath id="clip0_133_1472">
<rect x="150" y="100" width="150" height="100" rx="3.5" transform="rotate(-180 150 100)" fill="white"/>
</clipPath>
</defs>
</svg>
