<svg width="150" height="100" viewBox="0 0 150 100" fill="none" xmlns="http://www.w3.org/2000/svg">
<path d="M132.5 96.5L131 95.634V97.366L132.5 96.5Z" stroke="#FFD700" stroke-width="0.5"/>
<rect x="-0.25" y="0.25" width="2" height="2" rx="1" transform="matrix(-1 0 0 1 127.75 95.25)" stroke="#FFD700" stroke-width="0.5"/>
<path d="M121.5 96.5L123 97.366V95.634L121.5 96.5Z" stroke="#FFD700" stroke-width="0.5"/>
<path d="M3.5 80.5L2.63397 82H4.36603L3.5 80.5Z" stroke="#FFD700" stroke-width="0.5"/>
<path d="M3.5 86.75L4.36603 85.25H2.63397L3.5 86.75Z" stroke="#FFD700" stroke-width="0.5"/>
<rect x="-0.25" y="0.25" width="2" height="2" rx="1" transform="matrix(-1 0 0 1 14.25 2.25)" stroke="#FFD700" stroke-width="0.5"/>
<circle cx="40.496" cy="80.45" r="1.5" transform="rotate(-180 40.496 80.45)" fill="#FFD700"/>
<rect x="64.996" y="71.45" width="2" height="2" transform="rotate(180 64.996 71.45)" fill="#FFD700"/>
<rect x="52.996" y="51.45" width="2" height="2" transform="rotate(180 52.996 51.45)" fill="#FFD700"/>
<rect x="52.996" y="47.45" width="2" height="2" transform="rotate(180 52.996 47.45)" fill="#FFD700"/>
<rect x="56.996" y="47.45" width="2" height="2" transform="rotate(180 56.996 47.45)" fill="#FFD700"/>
<rect x="56.996" y="43.45" width="2" height="2" transform="rotate(180 56.996 43.45)" fill="#FFD700"/>
<rect x="60.996" y="71.45" width="2" height="2" transform="rotate(180 60.996 71.45)" fill="#FFD700"/>
<rect x="60.996" y="67.45" width="2" height="2" transform="rotate(180 60.996 67.45)" fill="#FFD700"/>
<rect x="56.996" y="67.45" width="2" height="2" transform="rotate(180 56.996 67.45)" fill="#FFD700"/>
<circle cx="40.496" cy="80.45" r="1.5" transform="rotate(-180 40.496 80.45)" fill="#FFD700"/>
</svg>
